<?xml version="1.0" standalone="no"?>
<!DOCTYPE svg PUBLIC "-//W3C//DTD SVG 1.1//EN" "http://www.w3.org/Graphics/SVG/1.1/DTD/svg11.dtd" >
<svg xmlns="http://www.w3.org/2000/svg" xmlns:xlink="http://www.w3.org/1999/xlink" version="1.1">
<metadata>
Created by FontForge 20200511 at Fri Jul 14 15:24:33 2023
 By convertio
Copyright (c)  M Klein  1.2004
</metadata>
<defs>
<font id="MonospaceTypewriter" horiz-adv-x="587" >
  <font-face 
    font-family="MonospaceTypewriter"
    font-weight="500"
    font-stretch="normal"
    units-per-em="1000"
    panose-1="2 0 6 6 4 0 0 2 0 4"
    ascent="800"
    descent="-200"
    x-height="600"
    cap-height="765"
    bbox="-37 -250 1003 1047"
    underline-thickness="50"
    underline-position="-175"
    unicode-range="U+0005-F430"
  />
<missing-glyph horiz-adv-x="572" 
 />
    <glyph glyph-name=".notdef" horiz-adv-x="572" 
 />
    <glyph glyph-name=".null" horiz-adv-x="0" 
 />
    <glyph glyph-name="nonmarkingreturn" horiz-adv-x="333" 
 />
    <glyph glyph-name="breve" 
d="M429 806h-50q-2 -41 -23.5 -58t-61.5 -17q-42 0 -62.5 17.5t-23.5 57.5h-50q5 -78 38 -114t98 -36q66 0 98 35.5t37 114.5z" />
    <glyph glyph-name="dotaccent" 
d="M338 667v117h-89v-117h89z" />
    <glyph glyph-name="ring" 
d="M410 760q0 28 -9 53t-25 43t-37 28.5t-46 10.5q-24 0 -45.5 -10.5t-37 -29t-24.5 -43t-9 -52.5q0 -29 9 -53.5t24.5 -43t37 -29t45.5 -10.5q25 0 46 10.5t37 29t25 43t9 53.5zM356 760q0 -31 -18.5 -52t-44.5 -21t-44 21t-18 52q0 30 18 51.5t44 21.5t44.5 -21.5
t18.5 -51.5z" />
    <glyph glyph-name="hungarumlaut" unicode="&#xa;" 
d="M434 825h-82l-77 -188h45zM301 825h-82l-63 -188h44z" />
    <glyph glyph-name="ogonek" 
d="M366 -191v77h-39q-25 0 -35 9t-10 33q0 30 15.5 58.5t47.5 60.5h-37q-42 -41 -64.5 -75t-22.5 -73q0 -90 105 -90h40z" />
    <glyph glyph-name="caron" 
d="M430 825h-56l-80 -123l-81 123h-56l91 -188h92z" />
    <glyph glyph-name="dotlessi" unicode="&#xd;" 
d="M508 10v81h-173v490h-83v-83h-1v-407h-171v-81h428z" />
    <glyph glyph-name="fraction" 
d="M441 789h-66l-229 -886h65z" />
    <glyph glyph-name="fi" 
d="M538 680v109h-83v-109h83zM538 0v571h-83v-571h83zM369 701v83q-17 3 -31 4t-27 1q-169 0 -169 -164v-104h-95v-82h95v-439h84v439h116v82h-116v86q0 47 25.5 72t74.5 25q17 0 43 -3z" />
    <glyph glyph-name="fl" 
d="M538 0v789h-83v-789h83zM369 701v83q-17 3 -31 4t-27 1q-169 0 -169 -164v-104h-95v-82h95v-439h84v439h116v82h-116v86q0 47 25.5 72t74.5 25q17 0 43 -3z" />
    <glyph glyph-name="Lslash" 
d="M556 1v93h-336v292l209 175l-37 56l-172 -142v290h-88v-359l-103 -89l36 -56l67 58v-318h424z" />
    <glyph glyph-name="lslash" 
d="M507 0v81h-171v313l135 106l-41 61l-94 -76v305h-215v-81h131v-289l-143 -115l39 -63l104 86v-247h-172v-81h427z" />
    <glyph glyph-name="Zcaron" 
d="M422 997h-56l-80 -122l-80 122h-56l91 -187h91zM522 1v93h-368l368 584v87h-447v-93h349l-375 -583v-88h473z" />
    <glyph glyph-name="zcaron" 
d="M419 825h-56l-80 -123l-81 123h-56l91 -188h92zM489 9v82h-308l295 434v75h-386v-82h283l-297 -435v-74h413z" />
    <glyph glyph-name="space" unicode=" " 
 />
    <glyph glyph-name="exclam" unicode="!" 
d="M340 541v225h-93v-225l23 -312h49zM359 1v164h-132v-164h132z" />
    <glyph glyph-name="quotedbl" unicode="&#x22;" 
d="M394 469v300h-63v-300h63zM257 469v300h-64v-300h64z" />
    <glyph glyph-name="numbersign" unicode="#" 
d="M530 461v79h-79l45 244h-67l-47 -244h-132l45 244h-66l-47 -244h-88v-79h75l-27 -140h-85v-80h72l-45 -243h65l47 243h133l-45 -243h66l45 243h96v80h-82l26 140h95zM369 461l-26 -142h-134l27 142h133z" />
    <glyph glyph-name="dollar" unicode="$" 
d="M525 216q0 49 -12 84t-37 60t-64.5 42t-93.5 31v242q49 -3 75.5 -32.5t32.5 -83.5h83q-1 88 -50 139t-141 60v72h-49v-72q-45 -3 -80.5 -19t-60.5 -43t-38.5 -64t-13.5 -81q0 -166 193 -201v-273q-58 3 -91 43.5t-33 109.5v11h-83v-10q0 -111 50.5 -167t156.5 -69v-95h49
v96q102 12 154.5 69t52.5 151zM269 442q-57 11 -83.5 38.5t-26.5 78.5t29.5 83t80.5 33v-233zM439 205q0 -56 -31 -90.5t-90 -41.5v262q63 -17 92 -46.5t29 -83.5z" />
    <glyph glyph-name="percent" unicode="%" 
d="M319 598q0 36 -11.5 67.5t-32 54.5t-47.5 36.5t-57 13.5q-31 0 -58 -13t-47 -36.5t-31.5 -55t-11.5 -67.5t11.5 -67t31.5 -54.5t47 -36.5t58 -13t58 13.5t47 37t31.5 54.5t11.5 66zM550 475l-19 52l-484 -225l17 -51zM564 173q0 35 -12 66t-32 54.5t-47.5 37t-57.5 13.5
q-31 0 -57.5 -13.5t-46.5 -36.5t-31.5 -54t-11.5 -67q0 -37 11.5 -68.5t31.5 -54.5t46.5 -36t57.5 -13t58 13.5t47 37t32 54.5t12 67zM256 598q0 -42 -25 -70.5t-60 -28.5q-36 0 -61 28.5t-25 70.5q0 21 6.5 39t18.5 31.5t27.5 21t33.5 7.5q35 0 60 -28.5t25 -70.5zM501 173
q0 -41 -24.5 -70t-61.5 -29q-35 0 -59.5 28.5t-24.5 70.5q0 21 6.5 39t18 31.5t26.5 21t33 7.5t33.5 -7.5t27 -21t18.5 -31.5t7 -39z" />
    <glyph glyph-name="ampersand" unicode="&#x26;" 
d="M557 1l-114 171q22 48 33 96.5t13 103.5h-84q-1 -32 -4.5 -59.5t-12.5 -52.5l-108 159q106 84 106 197q0 37 -10.5 68t-29 53t-43.5 34.5t-53 12.5q-33 0 -60 -13t-46.5 -36.5t-30 -54.5t-10.5 -67q0 -85 63 -181q-35 -25 -60.5 -49.5t-42 -52t-24.5 -59t-8 -68.5
q0 -47 13 -87t37 -69.5t57 -46.5t73 -17q57 0 100.5 24t81.5 79l55 -85h109zM312 613q0 -35 -20 -68.5t-58 -59.5q-26 36 -39.5 66t-13.5 62q0 35 20 61t49 26q26 0 44 -25t18 -62zM349 161q-22 -38 -54 -58.5t-69 -20.5q-26 0 -46.5 10.5t-35.5 29t-23 43.5t-8 54
q0 47 24 83t73 71z" />
    <glyph glyph-name="quotesingle" unicode="'" 
d="M325 469v300h-63v-300h63z" />
    <glyph glyph-name="parenleft" unicode="(" 
d="M401 -202q-60 112 -91.5 239t-31.5 258t31.5 258t91.5 239h-59q-80 -120 -117.5 -240.5t-37.5 -256.5q0 -135 37.5 -256t117.5 -241h59z" />
    <glyph glyph-name="parenright" unicode=")" 
d="M400 295q0 136 -38 256.5t-117 240.5h-59q60 -112 91 -239t31 -258t-31 -258t-91 -239h59q79 120 117 241t38 256z" />
    <glyph glyph-name="asterisk" unicode="*" 
d="M481 558l-26 84l-129 -55v162h-65v-162l-130 55l-25 -84l137 -40l-95 -134l64 -51l81 141l83 -143l63 53l-96 134z" />
    <glyph glyph-name="plus" unicode="+" 
d="M514 355v75h-187v239h-66v-239h-188v-75h188v-239h66v239h187z" />
    <glyph glyph-name="comma" unicode="," 
d="M370 27v177h-131v-165h64v-21q0 -62 -19.5 -91t-67.5 -36v-75q75 5 114.5 58t39.5 153z" />
    <glyph glyph-name="hyphen" unicode="-" 
d="M408 261v87h-229v-87h229z" />
    <glyph glyph-name="period" unicode="." 
d="M359 29v163h-131v-163h131z" />
    <glyph glyph-name="slash" unicode="/" 
d="M441 789h-66l-229 -886h65z" />
    <glyph glyph-name="zero" unicode="0" 
d="M522 375q0 198 -58 297t-170 99t-170.5 -99.5t-58.5 -296.5t58.5 -296t170.5 -99t170 98.5t58 296.5zM431 375q0 -155 -31 -230t-106 -75q-74 0 -106 75t-32 230t32 230t106 75q75 0 106 -75t31 -230z" />
    <glyph glyph-name="one" unicode="1" 
d="M412 1v769h-64q-9 -79 -51 -112.5t-125 -34.5v-79h154v-543h86z" />
    <glyph glyph-name="two" unicode="2" 
d="M520 1v95h-358q7 28 20.5 51.5t33.5 44t46.5 39t58.5 37.5l56 33q74 44 108.5 103.5t34.5 137.5q0 51 -15.5 93t-44 72t-69 46.5t-89.5 16.5q-50 0 -90.5 -18t-69.5 -51.5t-44.5 -82.5t-15.5 -110v-15h86v9q0 85 35 131t95 46q61 0 96.5 -38t35.5 -98q0 -54 -23.5 -93
t-73.5 -71l-56 -35q-53 -33 -92.5 -67t-65.5 -73.5t-39 -88t-13 -111.5v-3h453z" />
    <glyph glyph-name="three" unicode="3" 
d="M524 223q0 72 -27.5 119t-81.5 69q84 43 84 154q0 97 -54.5 151.5t-158.5 54.5q-47 0 -85.5 -17t-65.5 -49t-42 -77t-15 -102v-8h85q0 163 128 163q57 0 86.5 -31t29.5 -89q0 -62 -31.5 -90.5t-94.5 -28.5h-12q-9 0 -25 1v-87q11 1 22.5 1.5t24.5 0.5q69 0 104.5 -36
t35.5 -99q0 -70 -37 -110.5t-102 -40.5q-67 0 -103.5 44.5t-38.5 125.5h-87v-8q0 -58 15.5 -105t45 -80t70.5 -51t92 -18q55 0 99 17.5t75 50t47.5 77t16.5 98.5z" />
    <glyph glyph-name="four" unicode="4" 
d="M528 191v88h-94v470h-86l-289 -461v-97h289v-189h86v189h94zM348 279h-209l209 342v-342z" />
    <glyph glyph-name="five" unicode="5" 
d="M523 251q0 56 -16 102.5t-45.5 80t-71 52t-92.5 18.5q-78 0 -126 -50l26 206h289v90h-352l-53 -405h76q49 71 126 71q68 0 107.5 -46.5t39.5 -124.5q0 -38 -10.5 -69t-29.5 -53t-46.5 -34.5t-60.5 -12.5q-54 0 -89 33t-43 93h-89q4 -49 21.5 -89.5t47 -70t69 -45.5
t86.5 -16q52 0 95.5 19.5t75 55t48.5 85.5t17 110z" />
    <glyph glyph-name="six" unicode="6" 
d="M525 236q0 59 -16 106t-44 79.5t-66.5 50t-84.5 17.5q-100 0 -157 -84q12 277 156 277q54 0 84 -31t35 -91h88q-5 101 -59.5 156t-148.5 55q-117 0 -183.5 -109.5t-66.5 -320.5q0 -178 62 -269.5t177 -91.5q51 0 92.5 19t70.5 53t45 81t16 103zM433 235q0 -76 -36.5 -122
t-96.5 -46q-62 0 -98.5 45t-36.5 122t37 121t102 44q57 0 93 -43t36 -121z" />
    <glyph glyph-name="seven" unicode="7" 
d="M520 658v91h-453v-100h361q-116 -145 -182.5 -303t-87.5 -344h96q20 189 86.5 351.5t179.5 304.5z" />
    <glyph glyph-name="eight" unicode="8" 
d="M521 221q0 145 -110 192q87 46 87 161q0 42 -14.5 78.5t-41 62.5t-64.5 41t-85 15t-85 -15t-64.5 -41t-41 -62.5t-14.5 -78.5q0 -115 88 -161q-110 -47 -110 -192q0 -53 15.5 -97.5t44.5 -76.5t71 -49.5t96 -17.5t96.5 17.5t71.5 49.5t44.5 76.5t15.5 97.5zM408 565
q0 -54 -30.5 -87.5t-84.5 -33.5q-53 0 -83.5 33.5t-30.5 87.5q0 56 30 87t84 31t84.5 -31t30.5 -87zM429 223q0 -69 -36 -110t-100 -41q-63 0 -99 41t-36 110q0 66 36 103.5t99 37.5q64 0 100 -37.5t36 -103.5z" />
    <glyph glyph-name="nine" unicode="9" 
d="M525 410q0 178 -62 269.5t-177 91.5q-51 0 -92.5 -19t-70.5 -53t-45 -81t-16 -103q0 -59 16 -106t44 -79.5t66.5 -50t84.5 -17.5q100 0 157 84q-13 -277 -156 -277q-54 0 -85.5 32t-33.5 90h-87q0 -48 14.5 -86.5t41 -66.5t64.5 -43t85 -15q121 0 186.5 110t65.5 320z
M422 517q0 -77 -36.5 -120.5t-102.5 -43.5q-57 0 -93 42.5t-36 120.5q0 76 36 122t96 46q63 0 99.5 -45t36.5 -122z" />
    <glyph glyph-name="colon" unicode=":" 
d="M359 436v164h-131v-164h131zM359 9v164h-131v-164h131z" />
    <glyph glyph-name="semicolon" unicode=";" 
d="M370 446v164h-131v-164h131zM370 7v177h-131v-165h64v-21q0 -61 -19.5 -90t-67.5 -36v-75q75 5 114.5 57.5t39.5 152.5z" />
    <glyph glyph-name="less" unicode="&#x3c;" 
d="M514 124v88l-349 180l349 183v86l-441 -234v-69z" />
    <glyph glyph-name="equal" unicode="=" 
d="M514 459v76h-441v-76h441zM514 247v75h-441v-75h441z" />
    <glyph glyph-name="greater" unicode="&#x3e;" 
d="M514 358v69l-441 234v-86l350 -183l-350 -180v-88z" />
    <glyph glyph-name="question" unicode="?" 
d="M498 592q0 42 -14 77.5t-39.5 61t-62 40t-81.5 14.5q-103 0 -157.5 -60t-54.5 -169v-13h83q4 156 126 156q52 0 80.5 -30.5t28.5 -81.5q0 -33 -13 -61t-39 -56l-36 -38q-35 -38 -54 -79.5t-19 -96.5q0 -7 0.5 -13.5t0.5 -14.5h83q-1 7 -1 13v12q0 25 3.5 43.5t11 34
t18.5 29t26 29.5l39 39q71 72 71 164zM353 0v164h-132v-164h132z" />
    <glyph glyph-name="at" unicode="@" 
d="M541 191v64q-5 -2 -9.5 -0.5t-6.5 1.5q-23 0 -23 31v19v162q0 74 -7.5 128t-30.5 94q-27 45 -70.5 70.5t-100.5 25.5q-245 0 -245 -418q0 -196 55.5 -292t173.5 -96q16 0 39 -0.5t37.5 -1t16.5 -0.5v73q-2 0 -15 0.5t-33.5 1t-33.5 0.5q-47 0 -79 19.5t-51.5 60
t-28.5 102.5t-9 148q0 332 170 332q33 0 58.5 -11t43 -29.5t26.5 -42.5t9 -50q0 -17 -10 -24t-28 -11t-42 -6.5t-52 -10.5q-59 -17 -88 -60.5t-29 -120.5q0 -82 32.5 -128t89.5 -46q42 0 75.5 24t63.5 72v-7q0 -39 16 -57.5t51 -18.5q6 0 14.5 -1t20.5 4zM430 404
q0 -78 -33 -116.5t-79 -38.5q-32 0 -49.5 26t-17.5 78q0 50 16.5 76.5t54.5 39.5q29 9 56.5 12.5t51.5 18.5v-96z" />
    <glyph glyph-name="A" unicode="A" 
d="M583 1l-242 765h-96l-241 -765h88l69 225h263l69 -225h90zM395 309h-204l102 347z" />
    <glyph glyph-name="B" unicode="B" 
d="M522 230q0 72 -30.5 119.5t-88.5 64.5q45 26 67.5 63.5t22.5 95.5q0 95 -48.5 143.5t-144.5 48.5h-235v-764h248q101 0 155 60.5t54 168.5zM406 562q0 -57 -31 -88t-93 -31h-129v230h136q60 0 88.5 -25.5t28.5 -85.5zM431 228q0 -135 -128 -135h-150v262h141
q69 0 103 -30t34 -97z" />
    <glyph glyph-name="C" unicode="C" 
d="M534 285h-91q-11 -105 -50.5 -158.5t-95.5 -53.5q-67 0 -110 79t-43 231t42.5 231.5t110.5 79.5q49 0 85 -40.5t51 -118.5h90q-8 59 -27.5 105.5t-49 79t-67.5 49.5t-82 17q-56 0 -101 -26.5t-76.5 -78t-49 -126.5t-17.5 -172q0 -96 17.5 -171t49 -126.5t76.5 -78.5
t101 -27q48 0 89 20.5t71.5 59.5t50.5 95.5t26 129.5z" />
    <glyph glyph-name="D" unicode="D" 
d="M526 383q0 382 -245 382h-219v-764h219q117 0 181 98t64 284zM435 383q0 -148 -39 -219t-122 -71h-124v580h124q42 0 72.5 -16t50 -50.5t29 -90t9.5 -133.5z" />
    <glyph glyph-name="E" unicode="E" 
d="M503 1v93h-331v263h295v87h-295v228h323v93h-410v-764h418z" />
    <glyph glyph-name="F" unicode="F" 
d="M509 672v93h-430v-764h89v356h277v87h-277v228h341z" />
    <glyph glyph-name="G" unicode="G" 
d="M537 1v413h-240v-89h148v-6q0 -56 -11 -101.5t-30.5 -77t-46.5 -48.5t-58 -17q-70 0 -114.5 79.5t-44.5 231.5t43 232t121 80q53 0 87 -42t44 -121h94q-12 119 -70.5 185t-149.5 66q-59 0 -107 -27.5t-82 -79.5t-52.5 -127t-18.5 -169q0 -95 19 -169.5t52 -126.5
t77.5 -79.5t95.5 -27.5q114 0 181 124l16 -103h47z" />
    <glyph glyph-name="H" unicode="H" 
d="M513 1v764h-87v-312h-264v312h-88v-764h88v359h264v-359h87z" />
    <glyph glyph-name="I" unicode="I" 
d="M459 1v88h-122v588h122v88h-331v-88h122v-588h-122v-88h331z" />
    <glyph glyph-name="J" unicode="J" 
d="M510 251v515h-87v-511q0 -47 -6 -81t-20.5 -56t-39.5 -33t-64 -11q-72 0 -102.5 42.5t-30.5 136.5q0 13 0.5 26.5t1.5 28.5h-86q-1 -15 -1.5 -28.5t-0.5 -27.5q0 -142 51 -206.5t167 -64.5q58 0 99.5 15.5t67.5 48.5t38.5 84t12.5 122z" />
    <glyph glyph-name="K" unicode="K" 
d="M541 1l-266 443l258 321h-105l-293 -363v363h-87v-764h87v272l78 97l222 -369h106z" />
    <glyph glyph-name="L" unicode="L" 
d="M506 1v88h-336v676h-88v-764h424z" />
    <glyph glyph-name="M" unicode="M" 
d="M531 1v764h-116l-122 -674l-120 674h-117v-764h73v693l124 -693h81l123 693v-693h74z" />
    <glyph glyph-name="N" unicode="N" 
d="M510 1v764h-80v-626l-240 626h-113v-764h79v616l242 -616h112z" />
    <glyph glyph-name="O" unicode="O" 
d="M538 383q0 96 -17.5 171t-49.5 126.5t-77 78.5t-101 27t-101 -26.5t-77 -78t-49 -126.5t-17 -172q0 -96 17.5 -171t49 -126.5t76.5 -78.5t101 -27t101 27t77 78.5t49.5 126.5t17.5 171zM446 383q0 -151 -42 -230.5t-111 -79.5q-68 0 -110 79t-42 231t42 231.5t110 79.5
q69 0 111 -80t42 -231z" />
    <glyph glyph-name="P" unicode="P" 
d="M508 545q0 109 -50.5 164.5t-149.5 55.5h-49h-179v-764h87v323h97q55 0 98 6t78 38q68 60 68 177zM416 545q0 -39 -9 -64.5t-26 -40.5t-43 -21.5t-60 -6.5h-111v259h117q33 0 58 -6t41.5 -20.5t24.5 -38.5t8 -61z" />
    <glyph glyph-name="Q" unicode="Q" 
d="M538 383q0 96 -17.5 171t-49.5 126.5t-77 78.5t-101 27t-101 -26.5t-77 -78t-49 -126.5t-17 -172q0 -96 17.5 -171t49 -126.5t76.5 -78.5t101 -27t101 27t77 78.5t49.5 126.5t17.5 171zM446 383q0 -151 -42 -230.5t-111 -79.5q-68 0 -110 79t-42 231t42 231.5t110 79.5
q69 0 111 -80t42 -231zM478 -149l15 85l-226 40l-16 -85z" />
    <glyph glyph-name="R" unicode="R" 
d="M514 1v21q-16 11 -21.5 32t-7.5 56l-7 123q-2 30 -5 52.5t-10.5 39.5t-21 29t-35.5 20q87 46 87 173q0 106 -50 162t-149 56h-51h-170v-764h89v328h90q40 0 66.5 -4t42 -16.5t22.5 -37.5t9 -67l5 -99q5 -79 17 -104h100zM402 545q0 -77 -35.5 -106t-103.5 -29h-101v261
h107q33 0 58 -6t41.5 -20.5t25 -38.5t8.5 -61z" />
    <glyph glyph-name="S" unicode="S" 
d="M530 222q0 55 -14 91t-40 59t-64 38t-87 28q-43 12 -73.5 21.5t-49.5 23.5t-27.5 35t-8.5 55q0 55 33.5 88t90.5 33q60 0 95.5 -40t40.5 -117h86v2q0 118 -59 182t-166 64q-47 0 -85.5 -16.5t-66.5 -46.5t-43 -71.5t-15 -92.5q0 -50 12.5 -82.5t36 -55t57.5 -38t77 -29.5
q44 -14 78 -24.5t57.5 -24t35.5 -35t12 -58.5q0 -64 -40 -101t-104 -37q-71 0 -113.5 47.5t-42.5 132.5h-86q5 -132 66.5 -202.5t171.5 -70.5q55 0 98.5 17.5t74 49t46.5 76t16 99.5z" />
    <glyph glyph-name="T" unicode="T" 
d="M537 672v93h-487v-93h200v-671h88v671h199z" />
    <glyph glyph-name="U" unicode="U" 
d="M521 293v473h-89v-479q0 -107 -33.5 -160t-105.5 -53t-105.5 52.5t-33.5 160.5v479h-88v-473q0 -158 55.5 -235t171.5 -77q117 0 172.5 76t55.5 236z" />
    <glyph glyph-name="V" unicode="V" 
d="M551 766h-90l-165 -650l-170 650h-91l213 -765h95z" />
    <glyph glyph-name="W" unicode="W" 
d="M587 766h-76l-82 -640l-84 640h-103l-82 -640l-82 640h-78l114 -765h84l95 662l98 -662h80z" />
    <glyph glyph-name="X" unicode="X" 
d="M546 1l-206 393l196 372h-96l-146 -283l-142 283h-100l195 -373l-206 -392h100l151 309l153 -309h101z" />
    <glyph glyph-name="Y" unicode="Y" 
d="M559 766h-99l-162 -362l-165 362h-105l226 -462v-303h88v309z" />
    <glyph glyph-name="Z" unicode="Z" 
d="M530 1v93h-369l369 584v87h-447v-93h348l-374 -583v-88h473z" />
    <glyph glyph-name="bracketleft" unicode="[" 
d="M386 -184v74h-102v810h102v74h-185v-958h185z" />
    <glyph glyph-name="backslash" unicode="\" 
d="M441 -97l-229 886h-66l230 -886h65z" />
    <glyph glyph-name="bracketright" unicode="]" 
d="M386 -184v958h-186v-74h102v-810h-102v-74h186z" />
    <glyph glyph-name="asciicircum" unicode="^" 
d="M459 501q0 11 -6 20l-128 189q-10 13 -32 13q-21 0 -30 -13l-129 -189q-6 -9 -6 -20q0 -12 8 -19.5t16 -7.5q7 0 12 5l129 150l130 -150q4 -5 12 -5t16 7.5t8 19.5z" />
    <glyph glyph-name="underscore" unicode="_" 
d="M579 -204v78h-571v-78h571z" />
    <glyph glyph-name="grave" unicode="`" 
d="M387 637l-95 188h-93l132 -188h56z" />
    <glyph glyph-name="a" unicode="a" 
d="M516 7v75q-12 -4 -20 -4q-21 0 -26 15t-5 44v305q0 91 -44 135t-141 44q-88 0 -138 -50t-50 -136v-7h75q0 107 111 107q106 0 106 -90q0 -31 -3 -46.5t-15.5 -23t-38.5 -10.5t-71 -9q-47 -7 -82 -19.5t-58 -35t-34 -56t-11 -81.5q0 -81 40 -127t112 -46q95 0 168 95v-3
q0 -85 78 -85q23 0 47 9zM381 216q0 -32 -11 -57.5t-30.5 -44t-45.5 -28.5t-56 -10q-83 0 -83 97q0 45 19 66.5t61 30.5q40 8 77 13.5t69 25.5v-93z" />
    <glyph glyph-name="b" unicode="b" 
d="M508 297q0 75 -14.5 133.5t-41 99t-63 62t-80.5 21.5q-93 0 -146 -111v289h-83v-790h83v91q25 -55 61.5 -83.5t84.5 -28.5q44 0 80.5 21.5t63 62.5t41 100t14.5 133zM423 297q0 -112 -35.5 -171t-92.5 -59q-63 0 -97 58t-34 172t34 171.5t97 57.5q57 0 92.5 -58.5
t35.5 -170.5z" />
    <glyph glyph-name="c" unicode="c" 
d="M506 220h-80q-7 -69 -40.5 -107t-84.5 -38q-66 0 -100 58t-34 173q0 114 35.5 172t98.5 58q56 0 87 -34.5t34 -97.5h83q-2 49 -17 89t-41.5 68.5t-63.5 44t-82 15.5q-50 0 -91 -21.5t-69.5 -62t-44 -100t-15.5 -134.5q0 -148 57 -231.5t160 -83.5q45 0 82 16.5t64 46.5
t43 73t19 96z" />
    <glyph glyph-name="d" unicode="d" 
d="M507 1v790h-82v-289q-54 111 -148 111q-44 0 -80 -21.5t-62.5 -62t-41 -99t-14.5 -133.5q0 -74 14.5 -133t40.5 -100t62.5 -62.5t80.5 -21.5q96 0 147 112v-91h83zM423 297q0 -114 -34 -172t-97 -58q-57 0 -92.5 59t-35.5 171t35.5 170.5t92.5 58.5q63 0 97 -57.5
t34 -171.5z" />
    <glyph glyph-name="e" unicode="e" 
d="M505 322q0 144 -56.5 221.5t-155.5 77.5q-47 0 -86 -21.5t-66.5 -62t-43 -99.5t-15.5 -133q0 -75 15 -134t42.5 -99.5t65.5 -62t85 -21.5q40 0 74.5 13.5t61 38.5t44.5 60t25 79h-82q-11 -50 -40.5 -77t-71.5 -27q-59 0 -95 51.5t-36 146.5v3h334q1 12 1 23v23zM417 353
h-247q3 87 36 135t90 48t89 -48.5t32 -134.5z" />
    <glyph glyph-name="f" unicode="f" 
d="M506 434v77h-190v96q0 52 29 75t90 23q17 0 34.5 -1t36.5 -3v83q-53 6 -90 6q-94 0 -138.5 -39t-44.5 -126v-114h-153v-77h153v-434h83v434h190z" />
    <glyph glyph-name="g" unicode="g" 
d="M507 45v564h-79v-95q-57 116 -151 116q-44 0 -80 -21.5t-62.5 -62t-41 -99t-14.5 -133.5t14.5 -133.5t41 -99t62.5 -62t80 -21.5q26 0 46.5 7t38 20.5t33.5 34.5t33 49v-84q0 -76 -28.5 -113.5t-100.5 -37.5q-118 0 -118 91h-80v-5q0 -78 50 -123.5t144 -45.5
q117 0 164.5 62.5t47.5 191.5zM426 314q0 -112 -35 -170.5t-98 -58.5q-58 0 -93 58.5t-35 170.5q0 113 35 171t93 58q63 0 98 -58t35 -171z" />
    <glyph glyph-name="h" unicode="h" 
d="M492 0v359v29q0 44 -3 79t-18 64q-20 39 -55.5 60t-88.5 21q-51 0 -88.5 -28t-59.5 -79v285h-84v-790h84v341q0 89 36 136.5t100 47.5q56 0 74.5 -40t18.5 -116v-369h84z" />
    <glyph glyph-name="i" unicode="i" 
d="M338 680v110h-89v-110h89zM508 0v77h-173v494h-83q0 -115 -0.5 -242t-0.5 -252h-171v-77h428z" />
    <glyph glyph-name="j" unicode="j" 
d="M411 690v110h-84v-110h84zM411 -30v611h-215v-82h131v-521q0 -32 -3 -53t-12.5 -34t-27.5 -18t-47 -5q-14 0 -30 1.5t-33 3.5v-87q25 -2 46 -3.5t39 -1.5q44 0 73.5 11t47 34t24.5 58.5t7 85.5z" />
    <glyph glyph-name="k" unicode="k" 
d="M504 591h-105l-231 -266v465h-84v-790h84v208l87 98l150 -306h94l-187 373z" />
    <glyph glyph-name="l" unicode="l" 
d="M507 0v77h-171v713h-215v-77h131v-636h-172v-77h427z" />
    <glyph glyph-name="m" unicode="m" 
d="M524 8v408q0 48 -4 86t-15 64t-30.5 40t-49.5 14q-33 0 -58 -21.5t-45 -64.5q-11 42 -35 64t-59 22q-30 0 -53.5 -21.5t-37.5 -62.5v63h-74v-591h77v395q0 68 19 103t50 35q29 0 38.5 -30.5t9.5 -87.5v-415h73v395q0 67 19.5 102.5t50.5 35.5q29 0 38 -30.5t9 -87.5v-415
h77z" />
    <glyph glyph-name="n" unicode="n" 
d="M492 8v359v30q0 43 -3 78t-18 65q-20 38 -55.5 59t-88.5 21q-102 0 -152 -111v90h-80v-591h84v341q0 89 36 136.5t100 47.5q56 0 74.5 -40t18.5 -116v-369h84z" />
    <glyph glyph-name="o" unicode="o" 
d="M515 304q0 152 -59 234.5t-163 82.5q-103 0 -162 -83t-59 -234q0 -75 15.5 -134t44 -99.5t69.5 -61.5t92 -21q104 0 163 82t59 234zM429 305q0 -114 -35.5 -172.5t-100.5 -58.5q-64 0 -99.5 58.5t-35.5 172.5t35 172t100 58t100.5 -57.5t35.5 -172.5z" />
    <glyph glyph-name="p" unicode="p" 
d="M508 315q0 75 -14.5 133.5t-41 99t-63 61.5t-80.5 21q-49 0 -83.5 -26.5t-62.5 -85.5v91h-83v-819h83v319q29 -60 63 -85.5t83 -25.5q44 0 80.5 21.5t63 62t41 99.5t14.5 134zM423 315q0 -112 -35.5 -171t-92.5 -59q-63 0 -97 58t-34 172q0 113 34 170.5t97 57.5
q57 0 92.5 -58t35.5 -170z" />
    <glyph glyph-name="q" unicode="q" 
d="M507 -210v819h-83v-91q-28 59 -62.5 85.5t-84.5 26.5q-44 0 -80 -21t-62.5 -61.5t-41 -99t-14.5 -133.5t14.5 -134t41 -99.5t62.5 -62t80 -21.5q50 0 84 25.5t63 85.5v-319h83zM423 315q0 -114 -34 -172t-97 -58q-57 0 -92.5 59t-35.5 171t35.5 170t92.5 58
q63 0 97 -57.5t34 -170.5z" />
    <glyph glyph-name="r" unicode="r" 
d="M525 415q-3 205 -166 205q-51 0 -87.5 -30.5t-62.5 -88.5v98h-83v-591h84v338q0 94 34.5 143t97.5 49q48 0 73.5 -32t25.5 -91h84z" />
    <glyph glyph-name="s" unicode="s" 
d="M498 183q0 41 -10 69t-29.5 47.5t-48 31.5t-65.5 22l-81 22q-39 11 -59.5 26.5t-20.5 50.5q0 42 26 64t79 22q51 0 80.5 -25t31.5 -70h82v2q0 39 -13.5 71.5t-39 56t-61 36t-80.5 12.5q-46 0 -81 -13t-59 -36t-36 -54.5t-12 -68.5q0 -38 8.5 -65t26.5 -46.5t44.5 -33
t62.5 -23.5l93 -27q19 -5 33.5 -11t24.5 -15t15 -22.5t5 -33.5q0 -44 -30.5 -71t-87.5 -27q-117 0 -126 119h-81q2 -99 52.5 -152t147.5 -53q102 0 155.5 53t53.5 142z" />
    <glyph glyph-name="t" unicode="t" 
d="M502 -12v83q-45 -6 -72 -6q-41 0 -65 9t-36 27.5t-15 46t-3 64.5v285h191v77h-191v173l-83 -30v-143h-145v-77h145v-301q0 -55 6.5 -95.5t25.5 -66.5t53.5 -39t90.5 -13q38 0 98 6z" />
    <glyph glyph-name="u" unicode="u" 
d="M492 10v591h-84v-341q0 -89 -36 -136t-100 -47q-52 0 -72.5 36t-20.5 108v11v369h-84v-359v-30q0 -43 3 -78t18 -65q20 -38 55.5 -59t88.5 -21q100 0 152 111v-90h80z" />
    <glyph glyph-name="v" unicode="v" 
d="M525 600h-86l-144 -476l-146 476h-87l189 -591h88z" />
    <glyph glyph-name="w" unicode="w" 
d="M575 600h-81l-85 -462l-65 462h-102l-65 -462l-85 462h-80l126 -591h79l76 502l76 -502h80z" />
    <glyph glyph-name="x" unicode="x" 
d="M526 9l-183 305l172 286h-97l-124 -215l-125 215h-98l169 -287l-179 -304h98l131 230l135 -230h101z" />
    <glyph glyph-name="y" unicode="y" 
d="M529 610h-90l-146 -486l-143 486h-92l194 -623l-17 -60q-8 -27 -25.5 -38.5t-45.5 -11.5q-33 0 -77 11v-88q20 -6 40 -7.5t41 -1.5q35 0 58.5 8.5t40.5 27.5t29.5 47.5t25.5 69.5z" />
    <glyph glyph-name="z" unicode="z" 
d="M500 9v82h-308l295 434v75h-386v-82h283l-297 -435v-74h413z" />
    <glyph glyph-name="braceleft" unicode="{" 
d="M455 -204v80h-14q-32 0 -51 6t-29.5 20.5t-14 38t-3.5 58.5v121q0 38 -3.5 66.5t-13.5 49.5t-28.5 35.5t-48.5 23.5q30 9 48.5 23.5t28.5 35.5t13.5 49.5t3.5 66.5v121q0 34 3 58t13 38.5t29 21t50 6.5h17v79h-21q-55 0 -88.5 -9t-51.5 -31t-24 -59t-6 -92v-124
q0 -79 -25.5 -111t-88.5 -32h-19v-81h19q63 0 88.5 -32.5t25.5 -111.5v-123q0 -55 6 -92t24 -59t51.5 -31.5t88.5 -9.5h21z" />
    <glyph glyph-name="bar" unicode="|" 
d="M328 -250v1100h-69v-1100h69z" />
    <glyph glyph-name="braceright" unicode="}" 
d="M455 255v81q-5 0 -10 -0.5t-10 -0.5q-62 0 -86.5 32.5t-24.5 111.5v124q0 55 -6 92t-24.5 59t-52 31t-88.5 9h-22v-79h19q31 0 49.5 -6.5t28.5 -21t13.5 -38t3.5 -58.5v-121q0 -38 3 -66.5t13 -49.5t28.5 -35.5t48.5 -23.5q-30 -9 -48.5 -23.5t-28.5 -35.5t-13 -50
t-3 -66v-121q0 -35 -3.5 -58.5t-13.5 -37.5t-28.5 -20.5t-49.5 -6.5h-19v-80h22q55 0 88.5 9.5t52 31.5t24.5 59t6 92v123q0 79 25 111.5t88 32.5h18z" />
    <glyph glyph-name="asciitilde" unicode="~" 
d="M518 367q0 33 -23 33q-8 0 -18 -6l-22.5 -13.5t-28.5 -13.5t-36 -6q-23 0 -47 7t-48 16t-48.5 16t-48.5 7q-26 0 -49 -8.5t-41 -21.5t-28.5 -28.5t-10.5 -28.5q0 -33 23 -33q8 0 17.5 6t22.5 13.5t29 13.5t36 6q24 0 47.5 -7t47.5 -16t48 -16t48 -7q25 0 48.5 8.5
t41.5 21.5t29 28t11 29z" />
    <glyph glyph-name="exclamdown" unicode="&#xa1;" 
d="M360 621v164h-133v-164h133zM339 0v224l-23 313h-49l-21 -313v-224h93z" />
    <glyph glyph-name="cent" unicode="&#xa2;" 
d="M530 221h-80q-8 -67 -47 -106t-98 -39q-12 0 -23.5 2t-24.5 4l132 432q28 -20 41.5 -45.5t15.5 -63.5h83q-1 65 -30.5 114.5t-83.5 77.5l33 107h-48l-28 -92q-36 9 -70 9q-56 0 -101.5 -21.5t-77.5 -62.5t-49 -100t-17 -134q0 -207 131 -292l-38 -119h48l32 106
q22 -4 40 -6.5t35 -2.5q47 0 87.5 17t70 47.5t47.5 73t20 94.5zM347 530l-133 -431q-71 59 -71 208q0 113 42 171.5t117 58.5q24 0 45 -7z" />
    <glyph glyph-name="sterling" unicode="&#xa3;" 
d="M531 37l-38 73q-20 -15 -38 -23.5t-39 -8.5q-15 0 -31.5 5.5t-34.5 12.5t-38.5 12.5t-43.5 5.5q-27 0 -53 -4.5t-55 -21.5q95 101 95 190q0 13 -2.5 27.5t-7.5 31.5h128v62h-151q-20 46 -35.5 82t-15.5 71q0 27 9.5 51t26 41.5t40 28t52.5 10.5q62 0 96 -38.5t34 -111.5
v-9h84q1 6 1 11v11q0 52 -15 93.5t-43 70.5t-68 45t-89 16t-89 -17.5t-68.5 -47.5t-44.5 -69t-16 -82q0 -37 12 -77.5t37 -78.5h-74v-62h102q8 -20 13 -38.5t5 -38.5q0 -48 -29 -96t-86 -101l46 -74q56 45 119 45q36 0 63 -12l44 -20q16 -7 35 -13t46 -6q33 0 60.5 13.5
t56.5 40.5z" />
    <glyph glyph-name="currency" unicode="&#xa4;" 
d="M534 235h-91q-6 -52 -19 -84t-32 -49t-43 -23t-52 -6q-56 0 -95.5 55t-51.5 162h366v65h-371q0 7 -0.5 13.5t-0.5 14.5q0 25 1.5 47.5t3.5 43.5h367v66h-356q19 76 54 115t83 39q24 0 45.5 -2.5t39 -13.5t30.5 -32.5t21 -60.5h90q-8 59 -27.5 97.5t-49 61.5t-67.5 32.5
t-82 9.5q-86 0 -146 -63t-84 -183h-65v-66h56q-2 -22 -3.5 -44.5t-1.5 -46.5v-14t1 -14h-52v-65h56q16 -150 79 -230t160 -80q48 0 89 12.5t71.5 42t50.5 78.5t26 122z" />
    <glyph glyph-name="currency" unicode="&#x20ac;" 
d="M534 235h-91q-6 -52 -19 -84t-32 -49t-43 -23t-52 -6q-56 0 -95.5 55t-51.5 162h366v65h-371q0 7 -0.5 13.5t-0.5 14.5q0 25 1.5 47.5t3.5 43.5h367v66h-356q19 76 54 115t83 39q24 0 45.5 -2.5t39 -13.5t30.5 -32.5t21 -60.5h90q-8 59 -27.5 97.5t-49 61.5t-67.5 32.5
t-82 9.5q-86 0 -146 -63t-84 -183h-65v-66h56q-2 -22 -3.5 -44.5t-1.5 -46.5v-14t1 -14h-52v-65h56q16 -150 79 -230t160 -80q48 0 89 12.5t71.5 42t50.5 78.5t26 122z" />
    <glyph glyph-name="yen" unicode="&#xa5;" 
d="M572 298v59h-205l32 60h173v59h-142l142 273h-96l-178 -352l-178 352h-105l148 -273h-148v-59h179l33 -60h-212v-59h240v-296h86v296h231z" />
    <glyph glyph-name="brokenbar" unicode="&#xa6;" 
d="M321 372v407h-56v-407h56zM321 -180v409h-56v-409h56z" />
    <glyph glyph-name="section" unicode="&#xa7;" 
d="M494 309q0 59 -23.5 96t-70.5 66l-115 71q-35 22 -52 43t-17 51q0 33 19 53t54 20t57.5 -25t23.5 -70h80v6q0 81 -43 126t-118 45q-35 0 -63.5 -12.5t-48.5 -34.5t-31.5 -53t-11.5 -67q0 -69 43 -109q-84 -66 -84 -154q0 -96 94 -153l85 -53q52 -33 78 -59t26 -63
q0 -35 -21.5 -55.5t-59.5 -20.5q-42 0 -65.5 23t-23.5 67v6h-80v-3q0 -41 12 -73.5t33 -55.5t51 -35.5t66 -12.5q37 0 68 13t53.5 36.5t34.5 54.5t12 67q0 72 -48 117q19 9 35 24.5t27 35.5t17.5 42.5t6.5 45.5zM411 296q0 -28 -11.5 -53.5t-32.5 -42.5l-107 73
q-41 28 -63.5 52.5t-22.5 63.5q0 29 11.5 50.5t35.5 41.5l104 -69q21 -14 37 -25.5t27 -25t16.5 -29t5.5 -36.5z" />
    <glyph glyph-name="dieresis" unicode="&#xa8;" 
d="M412 669v113h-84v-113h84zM259 669v113h-84v-113h84z" />
    <glyph glyph-name="copyright" unicode="&#xa9;" 
d="M568 371q0 63 -21.5 122t-59.5 104t-89 68.5t-105 23.5q-55 0 -105 -24t-89 -70q-40 -45 -60 -102.5t-20 -121.5q0 -82 32 -151.5t91 -114.5q34 -26 72 -39.5t79 -13.5q57 0 106 24t87 70q40 46 61 104t21 121zM522 371q0 -52 -17 -100.5t-50 -86.5q-32 -38 -74.5 -58
t-87.5 -20t-86 20t-74 58q-32 38 -50 86.5t-18 100.5q0 51 17.5 100t49.5 87t74 58t87 20q46 0 88 -19.5t74 -57.5q32 -37 49.5 -86t17.5 -102zM422 248q0 31 -28 31q-6 0 -15 -7.5t-21.5 -16t-28.5 -16t-35 -7.5q-42 0 -69.5 36.5t-27.5 99.5q0 68 26 104.5t70 36.5
q24 0 41 -13t20 -30q3 -13 5 -22.5t5 -16t8.5 -10t15.5 -3.5q16 0 22 8.5t6 27.5v37q0 44 -4 61t-24 17q-17 0 -24 -12q-36 16 -71 16t-64 -15.5t-51 -43t-34 -65t-12 -81.5q0 -43 12.5 -79.5t34 -62.5t50.5 -41t63 -15q27 0 50.5 8.5t41 21t28 27t10.5 25.5z" />
    <glyph glyph-name="ordfeminine" unicode="&#xaa;" 
d="M469 357v52q-6 -1 -10 -1h-6q-18 0 -21.5 10t-3.5 31v201q0 65 -34.5 94.5t-109.5 29.5q-70 0 -109.5 -34.5t-39.5 -93.5v-6h58q0 75 89 75q83 0 83 -63q0 -19 -3 -28.5t-13 -14.5t-30 -7.5t-54 -6.5q-73 -9 -110 -37t-37 -92q0 -54 31.5 -87t89.5 -33q71 0 132 67
q0 -62 61 -62q17 0 37 6zM449 218v58h-318v-58h318zM365 504q0 -44 -33 -71t-83 -27q-33 0 -50.5 16.5t-17.5 45.5q0 34 16.5 48t51.5 21q29 5 58 7.5t58 18.5v-59z" />
    <glyph glyph-name="guillemotleft" unicode="&#xab;" 
d="M464 103v103l-100 99l100 98v103l-151 -143v-117zM273 103v103l-99 99l99 98v103l-150 -143v-117z" />
    <glyph glyph-name="logicalnot" unicode="&#xac;" 
d="M533 236v237q0 21 -27 21h-416q-16 0 -26 -11t-10 -28t9.5 -28t26.5 -11h373v-180q0 -18 10.5 -30.5t24.5 -12.5q16 0 25.5 12t9.5 31z" />
    <glyph glyph-name="uni00AD" unicode="&#xad;" 
 />
    <glyph glyph-name="registered" unicode="&#xae;" 
d="M568 371q0 63 -21.5 122t-59.5 104t-89 68.5t-105 23.5q-55 0 -105 -24t-89 -70q-40 -45 -60 -102.5t-20 -121.5q0 -82 32 -151.5t91 -114.5q34 -26 72 -39.5t79 -13.5q57 0 106 24t87 70q40 46 61 104t21 121zM522 371q0 -52 -17 -100.5t-50 -86.5q-32 -38 -74.5 -58
t-87.5 -20t-86 20t-74 58q-32 38 -50 86.5t-18 100.5q0 51 17.5 100t49.5 87t74 58t87 20q46 0 88 -19.5t74 -57.5q32 -37 49.5 -86t17.5 -102zM441 226q0 30 -33 30h-3l-49 84q-3 6 -6 10t-5 7q27 11 42.5 35.5t15.5 56.5q0 57 -33.5 83t-99.5 26h-89q-25 0 -25 -30
q0 -18 9 -23t29 -5h6v-244h-6q-20 0 -29 -6t-9 -24q0 -30 25 -30h84q17 0 25 6.5t8 23.5q0 30 -35 30h-8v90h8q16 0 23 -7.5t20 -30.5l48 -84q8 -14 14.5 -21t19.5 -7h27q26 0 26 30zM343 451q0 -49 -62 -49h-26v98h27q61 0 61 -49z" />
    <glyph glyph-name="macron" unicode="&#xaf;" 
d="M419 688v75h-251v-75h251z" />
    <glyph glyph-name="degree" unicode="&#xb0;" 
d="M427 606q0 33 -10.5 61t-29 49t-43 33t-51.5 12t-51.5 -12t-42.5 -33t-28.5 -49t-10.5 -61q0 -32 10 -60t28 -49t42.5 -33t52.5 -12q29 0 53.5 12.5t42.5 34t28 49.5t10 58zM384 607q0 -21 -7 -40t-19 -34t-29 -23.5t-36 -8.5t-35.5 8.5t-28.5 23t-19 33.5t-7 41
q0 21 7 40t19.5 33t29 22t34.5 8q19 0 35.5 -8t29 -22t19.5 -33t7 -40z" />
    <glyph glyph-name="plusminus" unicode="&#xb1;" 
d="M514 431v74h-188v190h-65v-190h-188v-74h188v-191h65v191h188zM514 89v76h-441v-76h441z" />
    <glyph glyph-name="twosuperior" unicode="&#xb2;" 
d="M460 206v71h-256q7 21 19 37t27 29.5t32.5 25.5t37.5 25l35 22q56 35 80.5 73.5t24.5 94.5q0 73 -44.5 116t-116.5 43q-73 0 -117 -48.5t-44 -134.5v-10h69v6q0 57 24.5 88t69.5 31q39 0 63 -25t24 -69q0 -33 -16.5 -59.5t-46.5 -46.5l-51 -32q-38 -24 -65.5 -49
t-45.5 -53t-27 -60.5t-9 -71.5v-3h333z" />
    <glyph glyph-name="threesuperior" unicode="&#xb3;" 
d="M465 367q0 100 -80 129q31 14 46.5 41.5t15.5 65.5q0 65 -40.5 104t-112.5 39q-76 0 -118.5 -45.5t-42.5 -125.5v-5h68v3q0 51 23 77.5t64 26.5q86 0 86 -79q0 -37 -20.5 -57.5t-62.5 -20.5h-21h-11v-66q11 1 19 2t14 1q49 0 74 -24.5t25 -66.5q0 -45 -26.5 -71.5
t-75.5 -26.5q-45 0 -70.5 30.5t-25.5 70.5v11h-71v-5q0 -81 45 -128.5t121 -47.5q42 0 75 12.5t55.5 35t34.5 53.5t12 67z" />
    <glyph glyph-name="acute" unicode="&#xb4;" 
d="M388 825h-93l-95 -188h56z" />
    <glyph glyph-name="mu" unicode="&#xb5;" 
d="M531 491q0 29 -32 29q-23 0 -30 -8t-11 -30l-43 -250q-6 -30 -21 -56.5t-36.5 -46t-48.5 -31t-55 -11.5q-74 0 -74 72q0 18 7 49l54 286q1 4 1 9q0 17 -23 17h-81q-42 0 -42 -43q0 -31 29 -31h37l-101 -566q-2 -14 -3.5 -26t-1.5 -20q0 -17 7.5 -24t26.5 -7
q17 0 24.5 14.5t12.5 47.5l27 179q29 -33 78 -33q85 0 157 77l-10 -38q-1 -5 -1 -10q0 -17 22 -17h74q41 0 41 43q0 31 -27 31h-30l72 384q1 3 1 10z" />
    <glyph glyph-name="paragraph" unicode="&#xb6;" 
d="M501 744v47h-232q-42 0 -76 -14t-58 -39t-36.5 -59.5t-12.5 -75.5q0 -40 12 -73.5t34.5 -58t54.5 -39t72 -15.5v-417h53v744h81v-744h52v744h56z" />
    <glyph glyph-name="periodcentered" unicode="&#xb7;" 
d="M362 375q0 16 -5.5 30.5t-15 25.5t-22 17.5t-26.5 6.5q-29 0 -48.5 -24t-19.5 -56q0 -35 19.5 -57t48.5 -22t49 23t20 56z" />
    <glyph glyph-name="periodcentered" unicode="&#x2219;" 
d="M362 375q0 16 -5.5 30.5t-15 25.5t-22 17.5t-26.5 6.5q-29 0 -48.5 -24t-19.5 -56q0 -35 19.5 -57t48.5 -22t49 23t20 56z" />
    <glyph glyph-name="cedilla" unicode="&#xb8;" 
d="M412 -104q0 47 -26 72t-77 25h-14v55h-36v-107q10 1 17 1h12q58 0 58 -46q0 -44 -55 -44q-14 0 -42.5 4t-72.5 17v-54q38 -13 68 -19t51 -6q58 0 87.5 27t29.5 75z" />
    <glyph glyph-name="onesuperior" unicode="&#xb9;" 
d="M387 205v541h-52q-5 -56 -39 -79t-98 -24v-54h116v-384h73z" />
    <glyph glyph-name="ordmasculine" unicode="&#xba;" 
d="M460 560q0 103 -44 158.5t-123 55.5q-77 0 -121.5 -55.5t-44.5 -158.5q0 -102 44.5 -158.5t121.5 -56.5q78 0 122.5 56t44.5 159zM443 218v58h-299v-58h299zM397 560q0 -75 -26.5 -114t-76.5 -39t-77 39t-27 114q0 76 27 115t77 39q49 0 76 -39t27 -115z" />
    <glyph glyph-name="guillemotright" unicode="&#xbb;" 
d="M464 246v117l-151 143v-103l99 -98l-99 -99v-103zM274 246v117l-151 143v-103l99 -98l-99 -99v-103z" />
    <glyph glyph-name="onequarter" unicode="&#xbc;" 
d="M251 434v459h-51q-6 -47 -39 -66.5t-98 -20.5v-46h123v-326h65zM552 407l-13 60l-503 -142l10 -62zM545 -22v54h-64v287h-58l-193 -282v-59h187v-116h64v116h64zM417 32h-131l131 196v-196z" />
    <glyph glyph-name="onehalf" unicode="&#xbd;" 
d="M251 434v459h-51q-6 -47 -39 -66.5t-98 -20.5v-46h123v-326h65zM552 414l-13 60l-503 -142l10 -62zM549 -136v57h-225q8 33 34.5 55.5t66.5 47.5l31 18q49 31 71 63t22 80q0 62 -38.5 99.5t-103.5 37.5q-63 0 -102 -42t-39 -114v-9h59v5q0 48 22 74t58 26
q38 0 59.5 -21.5t21.5 -58.5q0 -27 -14 -50.5t-42 -39.5l-45 -25q-69 -39 -99.5 -85t-30.5 -114v-4h294z" />
    <glyph glyph-name="threequarters" unicode="&#xbe;" 
d="M338 573q0 84 -72 109q56 23 56 90q0 56 -36 88.5t-100 32.5q-69 0 -106.5 -38.5t-37.5 -107.5v-3h63v8q0 41 20 63t58 22q35 0 54 -18t19 -46q0 -69 -74 -69h-27v-58q11 0 17.5 1t8.5 1q46 0 68.5 -20t22.5 -56q0 -39 -23.5 -61.5t-64.5 -22.5q-21 0 -37.5 7t-28 19
t-17 27.5t-5.5 31.5q0 2 -0.5 4.5t-0.5 5.5h-63v-7q0 -66 39.5 -106.5t108.5 -40.5q75 0 116.5 40.5t41.5 103.5zM555 407l-13 60l-503 -142l10 -62zM548 -22v54h-64v287h-57l-194 -282v-59h187v-116h64v116h64zM420 32h-131l131 196v-196z" />
    <glyph glyph-name="questiondown" unicode="&#xbf;" 
d="M365 621v164h-131v-164h131zM498 229v13h-83q-5 -156 -126 -156q-52 0 -81 30.5t-29 81.5q0 33 12.5 61t39.5 56l37 38q36 38 54.5 79.5t18.5 96.5q0 8 -0.5 14.5t-0.5 13.5h-83q1 -7 1 -14v-11q0 -25 -3.5 -43.5t-11 -34t-19 -29t-26.5 -29.5l-38 -39q-71 -72 -71 -164
q0 -42 13.5 -77.5t39 -61t62 -40t81.5 -14.5q103 0 158 60t55 169z" />
    <glyph glyph-name="Agrave" unicode="&#xc0;" 
d="M379 810l-95 187h-93l132 -187h56zM575 1l-242 765h-96l-241 -765h88l69 225h263l69 -225h90zM387 319h-204l102 337z" />
    <glyph glyph-name="Aacute" unicode="&#xc1;" 
d="M380 997h-93l-95 -187h56zM575 1l-242 765h-96l-241 -765h88l69 225h263l69 -225h90zM387 319h-204l102 337z" />
    <glyph glyph-name="Acircumflex" unicode="&#xc2;" 
d="M422 810l-90 187h-92l-91 -187h56l81 122l80 -122h56zM575 1l-242 765h-96l-241 -765h88l69 225h263l69 -225h90zM387 319h-204l102 337z" />
    <glyph glyph-name="Atilde" unicode="&#xc3;" 
d="M421 958h-41q-13 -37 -43 -37q-4 0 -10.5 1t-14.5 3l-45 16q-12 4 -28 4q-34 0 -57 -28t-32 -82h41q14 38 42 38q6 0 23 -5l44 -14q16 -6 31 -6q70 0 90 110zM575 1l-242 765h-96l-241 -765h88l69 225h263l69 -225h90zM387 319h-204l102 337z" />
    <glyph glyph-name="Adieresis" unicode="&#xc4;" 
d="M404 842v113h-84v-113h84zM251 842v113h-84v-113h84zM575 1l-242 765h-96l-241 -765h88l69 225h263l69 -225h90zM387 319h-204l102 337z" />
    <glyph glyph-name="Aring" unicode="&#xc5;" 
d="M411 912q0 28 -9 53t-25 43t-37 28.5t-46 10.5t-46.5 -10.5t-37 -29t-24.5 -43t-9 -52.5q0 -29 9 -53.5t24.5 -43.5t37 -29.5t46.5 -10.5t46 10.5t37 29.5t25 43.5t9 53.5zM583 -12l-242 764h-96l-241 -764h88l69 224h263l69 -224h90zM357 912q0 -31 -18.5 -52t-44.5 -21
t-44.5 21t-18.5 52q0 29 18.5 50.5t44.5 21.5t44.5 -21.5t18.5 -50.5zM395 306h-204l102 336z" />
    <glyph glyph-name="AE" unicode="&#xc6;" 
d="M612 1v96h-243v256h215v89h-215v229h240v95h-409l-226 -765h82l69 229h155v-229h332zM280 319h-128l106 359h22v-359z" />
    <glyph glyph-name="Ccedilla" unicode="&#xc7;" 
d="M522 285h-92q-11 -105 -50 -158.5t-95 -53.5q-67 0 -110 79t-43 231t42.5 231.5t110.5 79.5q49 0 85 -40.5t51 -118.5h90q-8 59 -28 105.5t-49 79t-67 49.5t-82 17q-56 0 -101 -26.5t-76.5 -78t-49 -126.5t-17.5 -172q0 -177 55.5 -279.5t150.5 -119.5v-43q9 1 16 1h12
q58 0 58 -46q0 -44 -55 -44q-14 0 -42.5 4t-72.5 17v-54q75 -25 120 -25q58 0 87.5 27t29.5 75q0 73 -62 91q75 20 124 96.5t60 201.5z" />
    <glyph glyph-name="Egrave" unicode="&#xc8;" 
d="M370 810l-95 187h-94l132 -187h57zM485 1v93h-330v258h294v92h-294v228h323v93h-411v-764h418z" />
    <glyph glyph-name="Eacute" unicode="&#xc9;" 
d="M371 997h-93l-95 -187h56zM485 1v93h-330v258h294v92h-294v228h323v93h-411v-764h418z" />
    <glyph glyph-name="Ecircumflex" unicode="&#xca;" 
d="M413 810l-91 187h-91l-91 -187h56l81 122l79 -122h57zM485 1v93h-330v258h294v92h-294v228h323v93h-411v-764h418z" />
    <glyph glyph-name="Edieresis" unicode="&#xcb;" 
d="M395 842v113h-85v-113h85zM242 842v113h-85v-113h85zM485 1v93h-330v258h294v92h-294v228h323v93h-411v-764h418z" />
    <glyph glyph-name="Igrave" unicode="&#xcc;" 
d="M379 810l-95 187h-93l132 -187h56zM451 1v93h-121v578h121v93h-330v-93h121v-578h-121v-93h330z" />
    <glyph glyph-name="Iacute" unicode="&#xcd;" 
d="M381 997h-93l-95 -187h56zM451 1v93h-121v578h121v93h-330v-93h121v-578h-121v-93h330z" />
    <glyph glyph-name="Icircumflex" unicode="&#xce;" 
d="M422 810l-90 187h-91l-91 -187h56l80 122l80 -122h56zM451 1v93h-121v578h121v93h-330v-93h121v-578h-121v-93h330z" />
    <glyph glyph-name="Idieresis" unicode="&#xcf;" 
d="M405 842v113h-85v-113h85zM252 842v113h-85v-113h85zM451 1v93h-121v578h121v93h-330v-93h121v-578h-121v-93h330z" />
    <glyph glyph-name="Eth" unicode="&#xd0;" 
d="M558 383q0 90 -16.5 161t-47.5 120t-77 75t-104 26h-220v-319h-65v-75h65v-370h220q57 0 102.5 26t77 75.5t48.5 120t17 160.5zM467 383q0 -141 -40.5 -215.5t-120.5 -74.5h-124v278h142v75h-142v227h124q161 0 161 -290z" />
    <glyph glyph-name="Ntilde" unicode="&#xd1;" 
d="M421 958h-41q-12 -37 -42 -37q-5 0 -11.5 1t-14.5 3l-45 16q-11 4 -27 4q-35 0 -58 -28t-31 -82h40q14 38 42 38q5 0 10 -1.5t13 -3.5l45 -14q15 -6 30 -6q72 0 90 110zM503 1v764h-80v-626l-250 626h-104v-764h79v626l253 -626h102z" />
    <glyph glyph-name="Ograve" unicode="&#xd2;" 
d="M379 810l-95 187h-93l132 -187h56zM530 383q0 96 -17.5 171t-49 126.5t-77 78.5t-100.5 27q-56 0 -101 -26.5t-77 -78t-49 -126.5t-17 -172q0 -96 17.5 -171t49 -126.5t76.5 -78.5t101 -27q55 0 100.5 27t77 78.5t49 126.5t17.5 171zM439 383q0 -151 -42.5 -230.5
t-110.5 -79.5t-110.5 79t-42.5 231t42.5 231.5t110.5 79.5q69 0 111 -80t42 -231z" />
    <glyph glyph-name="Oacute" unicode="&#xd3;" 
d="M381 997h-93l-95 -187h56zM530 383q0 96 -17.5 171t-49 126.5t-77 78.5t-100.5 27q-56 0 -101 -26.5t-77 -78t-49 -126.5t-17 -172q0 -96 17.5 -171t49 -126.5t76.5 -78.5t101 -27q55 0 100.5 27t77 78.5t49 126.5t17.5 171zM439 383q0 -151 -42.5 -230.5t-110.5 -79.5
t-110.5 79t-42.5 231t42.5 231.5t110.5 79.5q69 0 111 -80t42 -231z" />
    <glyph glyph-name="Ocircumflex" unicode="&#xd4;" 
d="M422 810l-90 187h-91l-91 -187h56l80 122l80 -122h56zM530 383q0 96 -17.5 171t-49 126.5t-77 78.5t-100.5 27q-56 0 -101 -26.5t-77 -78t-49 -126.5t-17 -172q0 -96 17.5 -171t49 -126.5t76.5 -78.5t101 -27q55 0 100.5 27t77 78.5t49 126.5t17.5 171zM439 383
q0 -151 -42.5 -230.5t-110.5 -79.5t-110.5 79t-42.5 231t42.5 231.5t110.5 79.5q69 0 111 -80t42 -231z" />
    <glyph glyph-name="Otilde" unicode="&#xd5;" 
d="M421 958h-41q-12 -37 -42 -37q-5 0 -11.5 1t-14.5 3l-45 16q-11 4 -27 4q-35 0 -58 -28t-31 -82h40q14 38 42 38q5 0 10 -1.5t13 -3.5l45 -14q15 -6 30 -6q72 0 90 110zM530 383q0 96 -17.5 171t-49 126.5t-77 78.5t-100.5 27q-56 0 -101 -26.5t-77 -78t-49 -126.5
t-17 -172q0 -96 17.5 -171t49 -126.5t76.5 -78.5t101 -27q55 0 100.5 27t77 78.5t49 126.5t17.5 171zM439 383q0 -151 -42.5 -230.5t-110.5 -79.5t-110.5 79t-42.5 231t42.5 231.5t110.5 79.5q69 0 111 -80t42 -231z" />
    <glyph glyph-name="Odieresis" unicode="&#xd6;" 
d="M405 842v113h-85v-113h85zM252 842v113h-85v-113h85zM530 383q0 96 -17.5 171t-49 126.5t-77 78.5t-100.5 27q-56 0 -101 -26.5t-77 -78t-49 -126.5t-17 -172q0 -96 17.5 -171t49 -126.5t76.5 -78.5t101 -27q55 0 100.5 27t77 78.5t49 126.5t17.5 171zM439 383
q0 -151 -42.5 -230.5t-110.5 -79.5t-110.5 79t-42.5 231t42.5 231.5t110.5 79.5q69 0 111 -80t42 -231z" />
    <glyph glyph-name="multiply" unicode="&#xd7;" 
d="M477 181q0 15 -13 30l-122 143l119 138q12 14 12 29q0 17 -10 28.5t-24 11.5q-12 0 -26 -14l-119 -138l-123 143q-12 14 -27 14q-14 0 -24 -11.5t-10 -26.5q0 -17 12 -32l123 -143l-118 -138q-11 -13 -11 -32q0 -17 9 -27t23 -10q7 0 14 4t13 10l118 137l123 -142
q12 -13 28 -13q14 0 23.5 11t9.5 28z" />
    <glyph glyph-name="Oslash" unicode="&#xd8;" 
d="M554 755l-52 36l-51 -87q-28 40 -68 61t-90 21q-56 0 -101 -26.5t-77 -78t-49 -126.5t-17 -172q0 -72 9.5 -135t37.5 -128l-63 -103l50 -40l51 84q35 -43 72.5 -62t86.5 -19q56 0 101.5 27t77.5 79.5t49 129t17 176.5q0 69 -10.5 129.5t-39.5 123.5zM398 618l-239 -400
q-11 41 -14.5 81.5t-3.5 83.5q0 152 41.5 231.5t110.5 79.5q34 0 61.5 -19.5t43.5 -56.5zM446 388q0 -155 -42 -235t-111 -80q-68 0 -107 76l241 397q11 -38 15 -77t4 -81z" />
    <glyph glyph-name="Ugrave" unicode="&#xd9;" 
d="M379 810l-95 187h-93l132 -187h56zM513 293v473h-88v-479q0 -213 -139 -213q-72 0 -106 52.5t-34 160.5v479h-87v-473q0 -158 55 -235t172 -77t172 76t55 236z" />
    <glyph glyph-name="Uacute" unicode="&#xda;" 
d="M381 997h-93l-95 -187h56zM513 293v473h-88v-479q0 -213 -139 -213q-72 0 -106 52.5t-34 160.5v479h-87v-473q0 -158 55 -235t172 -77t172 76t55 236z" />
    <glyph glyph-name="Ucircumflex" unicode="&#xdb;" 
d="M422 810l-90 187h-91l-91 -187h56l80 122l80 -122h56zM513 293v473h-88v-479q0 -213 -139 -213q-72 0 -106 52.5t-34 160.5v479h-87v-473q0 -158 55 -235t172 -77t172 76t55 236z" />
    <glyph glyph-name="Udieresis" unicode="&#xdc;" 
d="M405 842v113h-85v-113h85zM252 842v113h-85v-113h85zM513 293v473h-88v-479q0 -213 -139 -213q-72 0 -106 52.5t-34 160.5v479h-87v-473q0 -158 55 -235t172 -77t172 76t55 236z" />
    <glyph glyph-name="Yacute" unicode="&#xdd;" 
d="M380 997h-93l-95 -187h56zM551 766h-99l-162 -362l-165 362h-105l226 -462v-303h88v309z" />
    <glyph glyph-name="Thorn" unicode="&#xde;" 
d="M508 397q0 109 -50.5 165t-149.5 56h-49h-92v147h-87v-764h87v175h97q51 0 89.5 4t70.5 27q41 29 62.5 77t21.5 113zM416 397q0 -38 -9 -63t-26 -39t-43 -19.5t-60 -5.5h-111v255h117q66 0 99 -27.5t33 -100.5z" />
    <glyph glyph-name="germandbls" unicode="&#xdf;" 
d="M499 250q0 71 -27.5 122t-76.5 70q74 40 74 161q0 45 -13.5 81.5t-38 62.5t-59 40.5t-77.5 14.5q-94 0 -143 -60t-49 -178v-564h81v549q0 86 26 127.5t85 41.5q48 0 76 -33.5t28 -90.5q0 -61 -32 -93t-92 -32h-15v-80h15q76 0 114 -36.5t38 -113.5q0 -39 -10.5 -69.5
t-28.5 -52t-42 -33t-52 -11.5q-19 0 -39 7v-91q15 -3 28.5 -5t26.5 -2q43 0 80 19t64.5 54t43 84.5t15.5 110.5z" />
    <glyph glyph-name="agrave" unicode="&#xe0;" 
d="M370 637l-95 188h-94l132 -188h57zM499 7v75q-13 -4 -20 -4q-22 0 -27 15t-5 44v305q0 91 -44 135t-140 44q-89 0 -138.5 -50t-49.5 -136v-7h75q0 107 110 107q107 0 107 -90q0 -31 -3 -46.5t-16 -23t-38.5 -10.5t-71.5 -9q-47 -7 -81.5 -19.5t-57.5 -35t-34 -56
t-11 -81.5q0 -81 39.5 -127t112.5 -46q96 0 167 95v-3q0 -85 79 -85q23 0 47 9zM364 216q0 -32 -11 -57.5t-30.5 -44t-46 -28.5t-56.5 -10q-82 0 -82 97q0 45 19 66.5t61 30.5q40 8 77 13.5t69 25.5v-93z" />
    <glyph glyph-name="aacute" unicode="&#xe1;" 
d="M371 825h-93l-95 -188h56zM499 7v75q-13 -4 -20 -4q-22 0 -27 15t-5 44v305q0 91 -44 135t-140 44q-89 0 -138.5 -50t-49.5 -136v-7h75q0 107 110 107q107 0 107 -90q0 -31 -3 -46.5t-16 -23t-38.5 -11t-71.5 -9.5q-47 -6 -81.5 -18.5t-57.5 -35t-34 -56t-11 -81.5
q0 -81 39.5 -127t112.5 -46q96 0 167 95v-3q0 -85 79 -85q23 0 47 9zM364 216q0 -32 -11 -57.5t-30.5 -44t-46 -28.5t-56.5 -10q-82 0 -82 97q0 45 19 66.5t61 30.5q40 8 77 13.5t69 25.5v-93z" />
    <glyph glyph-name="acircumflex" unicode="&#xe2;" 
d="M413 637l-91 188h-91l-91 -188h56l81 123l79 -123h57zM499 7v75q-13 -4 -20 -4q-22 0 -27 15t-5 44v305q0 91 -44 135t-140 44q-89 0 -138.5 -50t-49.5 -136v-7h75q0 107 110 107q107 0 107 -90q0 -31 -3 -46.5t-16 -23t-38.5 -11t-71.5 -9.5q-47 -6 -81.5 -18.5
t-57.5 -35t-34 -56t-11 -81.5q0 -81 39.5 -127t112.5 -46q96 0 167 95v-3q0 -85 79 -85q23 0 47 9zM364 216q0 -32 -11 -57.5t-30.5 -44t-46 -28.5t-56.5 -10q-82 0 -82 97q0 45 19 66.5t61 30.5q40 8 77 13.5t69 25.5v-93z" />
    <glyph glyph-name="atilde" unicode="&#xe3;" 
d="M412 786h-41q-13 -38 -43 -38q-5 0 -11.5 1t-14.5 4l-44 15q-12 4 -28 4q-34 0 -57.5 -28t-31.5 -82h41q12 38 41 38q8 0 23 -5l45 -14q17 -5 30 -5q71 0 91 110zM499 7v75q-13 -4 -20 -4q-22 0 -27 15t-5 44v305q0 91 -44 135t-140 44q-89 0 -138.5 -50t-49.5 -136v-7
h75q0 107 110 107q107 0 107 -90q0 -31 -3 -46.5t-16 -23t-38.5 -10.5t-71.5 -9q-47 -7 -81.5 -19.5t-57.5 -35t-34 -56t-11 -81.5q0 -81 39.5 -127t112.5 -46q96 0 167 95v-3q0 -85 79 -85q23 0 47 9zM364 216q0 -32 -11 -57.5t-30.5 -44t-46 -28.5t-56.5 -10q-82 0 -82 97
q0 45 19 66.5t61 30.5q40 8 77 13.5t69 25.5v-93z" />
    <glyph glyph-name="adieresis" unicode="&#xe4;" 
d="M395 669v113h-85v-113h85zM242 669v113h-85v-113h85zM499 7v75q-13 -4 -20 -4q-22 0 -27 15t-5 44v305q0 91 -44 135t-140 44q-89 0 -138.5 -50t-49.5 -136v-7h75q0 107 110 107q107 0 107 -90q0 -31 -3 -46.5t-16 -23t-38.5 -10.5t-71.5 -9q-47 -7 -81.5 -19.5
t-57.5 -35t-34 -56t-11 -81.5q0 -81 39.5 -127t112.5 -46q96 0 167 95v-3q0 -85 79 -85q23 0 47 9zM364 216q0 -32 -11 -57.5t-30.5 -44t-46 -28.5t-56.5 -10q-82 0 -82 97q0 45 19 66.5t61 30.5q40 8 77 13.5t69 25.5v-93z" />
    <glyph glyph-name="aring" unicode="&#xe5;" 
d="M402 791q0 28 -9 53t-25 43t-37 28.5t-46 10.5q-24 0 -45.5 -10.5t-37.5 -29t-25 -43t-9 -52.5q0 -29 9 -53.5t25 -43.5t37.5 -29.5t45.5 -10.5q25 0 46 10.5t37 29.5t25 43.5t9 53.5zM516 -8v75q-14 -3 -20 -3q-21 0 -26 15t-5 43v306q0 91 -44 134.5t-141 43.5
q-88 0 -138 -49.5t-50 -136.5v-6h75q0 106 111 106q54 0 80 -21.5t26 -68.5q0 -30 -3 -45.5t-15.5 -23t-38.5 -11t-71 -9.5q-47 -6 -82 -19t-58 -35t-34 -55.5t-11 -81.5q0 -81 40 -127t112 -46q95 0 168 94v-3q0 -85 78 -85q13 0 24 2.5t23 6.5zM348 791q0 -31 -18.5 -52
t-44.5 -21t-44.5 21t-18.5 52q0 29 18.5 50.5t44.5 21.5t44.5 -21.5t18.5 -50.5zM381 201q0 -31 -11 -56.5t-30.5 -44t-45.5 -28.5t-56 -10q-83 0 -83 96q0 46 19 67t61 30q40 8 77 13.5t69 26.5v-94z" />
    <glyph glyph-name="ae" unicode="&#xe6;" 
d="M585 320q0 146 -46 223.5t-124 77.5q-68 0 -116 -74q-14 35 -47.5 54.5t-82.5 19.5q-69 0 -109.5 -49.5t-40.5 -135.5v-8h69v4q0 50 22.5 77t61.5 27t60 -22.5t21 -64.5q0 -31 -2 -47t-12 -24t-31 -12t-59 -10q-38 -7 -66 -19.5t-46 -35t-26.5 -56t-8.5 -81.5
q0 -82 32.5 -129t92.5 -47q50 0 85.5 32t61.5 96q20 -63 56.5 -95.5t82.5 -32.5q64 0 107.5 49t56.5 142h-76q-8 -50 -30 -77t-51 -27q-42 0 -68 51.5t-26 149.5h258q1 12 1 22v22zM504 358h-178q2 88 26.5 133t62.5 45q43 0 66 -45t23 -133zM241 216q0 -33 -8.5 -59
t-23 -44t-33 -28t-39.5 -10q-59 0 -59 98q0 75 59 97q25 9 52.5 13.5t51.5 25.5v-93z" />
    <glyph glyph-name="ccedilla" unicode="&#xe7;" 
d="M499 220h-80q-7 -69 -40.5 -107t-84.5 -38q-66 0 -100 58t-34 173q0 114 35.5 172t98.5 58q56 0 87 -34.5t34 -97.5h83q-2 49 -17 89t-41.5 68.5t-63.5 44t-82 15.5q-50 0 -91 -21.5t-69.5 -62t-44 -100t-15.5 -134.5q0 -134 46.5 -215t131.5 -96v-51q10 1 17 1h12
q58 0 58 -46q0 -44 -55 -44q-14 0 -42.5 4t-72.5 17v-54q38 -13 68 -19t51 -6q58 0 87.5 27t29.5 75q0 84 -79 95q75 12 121.5 72.5t51.5 156.5z" />
    <glyph glyph-name="egrave" unicode="&#xe8;" 
d="M379 637l-95 188h-93l132 -188h56zM497 322q0 144 -56.5 221.5t-155.5 77.5q-47 0 -86 -21.5t-66.5 -62t-43 -99.5t-15.5 -133q0 -75 15 -134t42.5 -99.5t65.5 -62t85 -21.5q81 0 136 51.5t69 139.5h-82q-12 -50 -41 -77t-71 -27q-59 0 -95 51.5t-36 146.5v3h334
q1 12 1 23v23zM409 358h-247q3 87 36 132.5t90 45.5t89 -46t32 -132z" />
    <glyph glyph-name="eacute" unicode="&#xe9;" 
d="M380 825h-93l-95 -188h56zM497 322q0 144 -56.5 221.5t-155.5 77.5q-47 0 -86 -21.5t-66.5 -62t-43 -99.5t-15.5 -133q0 -75 15 -134t42.5 -99.5t65.5 -62t85 -21.5q81 0 136 51.5t69 139.5h-82q-12 -50 -41 -77t-71 -27q-59 0 -95 51.5t-36 146.5v3h334q1 12 1 23v23z
M409 358h-247q3 87 36 132.5t90 45.5t89 -46t32 -132z" />
    <glyph glyph-name="ecircumflex" unicode="&#xea;" 
d="M422 637l-90 188h-92l-91 -188h56l81 123l80 -123h56zM497 322q0 144 -56.5 221.5t-155.5 77.5q-47 0 -86 -21.5t-66.5 -62t-43 -99.5t-15.5 -133q0 -75 15 -134t42.5 -99.5t65.5 -62t85 -21.5q81 0 136 51.5t69 139.5h-82q-12 -50 -41 -77t-71 -27q-59 0 -95 51.5
t-36 146.5v3h334q1 12 1 23v23zM409 358h-247q3 87 36 132.5t90 45.5t89 -46t32 -132z" />
    <glyph glyph-name="edieresis" unicode="&#xeb;" 
d="M404 669v113h-84v-113h84zM251 669v113h-84v-113h84zM497 322q0 144 -56.5 221.5t-155.5 77.5q-47 0 -86 -21.5t-66.5 -62t-43 -99.5t-15.5 -133q0 -75 15 -134t42.5 -99.5t65.5 -62t85 -21.5q81 0 136 51.5t69 139.5h-82q-12 -50 -41 -77t-71 -27q-59 0 -95 51.5
t-36 146.5v3h334q1 12 1 23v23zM409 358h-247q3 87 36 132.5t90 45.5t89 -46t32 -132z" />
    <glyph glyph-name="igrave" unicode="&#xec;" 
d="M361 637l-95 188h-93l132 -188h56zM482 10v81h-173v490h-83v-83h-1v-407h-171v-81h428z" />
    <glyph glyph-name="iacute" unicode="&#xed;" 
d="M362 825h-93l-95 -188h56zM482 10v81h-173v490h-83v-83h-1v-407h-171v-81h428z" />
    <glyph glyph-name="icircumflex" unicode="&#xee;" 
d="M404 637l-90 188h-92l-91 -188h56l81 123l80 -123h56zM482 10v81h-173v490h-83v-83h-1v-407h-171v-81h428z" />
    <glyph glyph-name="idieresis" unicode="&#xef;" 
d="M386 669v113h-84v-113h84zM233 669v113h-84v-113h84zM482 10v81h-173v490h-83v-83h-1v-407h-171v-81h428z" />
    <glyph glyph-name="eth" unicode="&#xf0;" 
d="M515 272q0 235 -125 416l97 41l-17 53l-113 -48q-26 29 -47.5 47t-38.5 29l-36 -54q21 -15 35 -29.5t23 -27.5l-101 -41l16 -52l115 49q40 -59 56 -109q-21 11 -42 14.5t-44 3.5q-104 0 -162.5 -76t-58.5 -216t58 -216.5t163 -76.5t163.5 77.5t58.5 215.5zM429 272
q0 -106 -35.5 -160t-100.5 -54q-64 0 -100 54.5t-36 159.5q0 106 35.5 160t100.5 54t100.5 -54t35.5 -160z" />
    <glyph glyph-name="ntilde" unicode="&#xf1;" 
d="M420 786h-41q-13 -38 -43 -38q-4 0 -10.5 1t-14.5 4l-45 15q-12 4 -28 4q-34 0 -57 -28t-32 -82h41q14 38 42 38q6 0 23 -5l44 -14q18 -5 31 -5q35 0 58 27.5t32 82.5zM483 8v359v30q0 43 -3 78t-18 65q-20 38 -55.5 59t-88.5 21q-100 0 -152 -111v90h-80v-591h84v341
q0 89 36 136.5t100 47.5q56 0 74.5 -40t18.5 -116v-369h84z" />
    <glyph glyph-name="ograve" unicode="&#xf2;" 
d="M379 637l-95 188h-93l132 -188h56zM507 304q0 152 -58.5 234.5t-162.5 82.5t-162.5 -82.5t-58.5 -234.5q0 -151 58.5 -233.5t162.5 -82.5t162.5 82t58.5 234zM422 305q0 -114 -36 -172.5t-100 -58.5q-65 0 -100.5 58.5t-35.5 172.5t35.5 172t100.5 58q64 0 100 -57.5
t36 -172.5z" />
    <glyph glyph-name="oacute" unicode="&#xf3;" 
d="M381 825h-93l-95 -188h56zM507 304q0 152 -58.5 234.5t-162.5 82.5t-162.5 -82.5t-58.5 -234.5q0 -151 58.5 -233.5t162.5 -82.5t162.5 82t58.5 234zM422 305q0 -114 -36 -172.5t-100 -58.5q-65 0 -100.5 58.5t-35.5 172.5t35.5 172t100.5 58q64 0 100 -57.5t36 -172.5z
" />
    <glyph glyph-name="ocircumflex" unicode="&#xf4;" 
d="M422 637l-90 188h-91l-91 -188h56l80 123l80 -123h56zM507 304q0 152 -58.5 234.5t-162.5 82.5t-162.5 -82.5t-58.5 -234.5q0 -151 58.5 -233.5t162.5 -82.5t162.5 82t58.5 234zM422 305q0 -114 -36 -172.5t-100 -58.5q-65 0 -100.5 58.5t-35.5 172.5t35.5 172t100.5 58
q64 0 100 -57.5t36 -172.5z" />
    <glyph glyph-name="otilde" unicode="&#xf5;" 
d="M421 786h-41q-12 -38 -42 -38q-5 0 -11.5 1t-14.5 4l-45 15q-11 4 -27 4q-35 0 -58 -28t-31 -82h40q14 38 42 38q5 0 10 -1.5t13 -3.5l45 -14q17 -5 30 -5q72 0 90 110zM507 304q0 152 -58.5 234.5t-162.5 82.5t-162.5 -82.5t-58.5 -234.5q0 -151 58.5 -233.5
t162.5 -82.5t162.5 82t58.5 234zM422 305q0 -114 -36 -172.5t-100 -58.5q-65 0 -100.5 58.5t-35.5 172.5t35.5 172t100.5 58q64 0 100 -57.5t36 -172.5z" />
    <glyph glyph-name="odieresis" unicode="&#xf6;" 
d="M405 669v113h-85v-113h85zM252 669v113h-85v-113h85zM507 304q0 152 -58.5 234.5t-162.5 82.5t-162.5 -82.5t-58.5 -234.5q0 -151 58.5 -233.5t162.5 -82.5t162.5 82t58.5 234zM422 305q0 -114 -36 -172.5t-100 -58.5q-65 0 -100.5 58.5t-35.5 172.5t35.5 172t100.5 58
q64 0 100 -57.5t36 -172.5z" />
    <glyph glyph-name="divide" unicode="&#xf7;" 
d="M345 512q0 25 -15.5 43t-35.5 18q-21 0 -36 -17.5t-15 -43.5q0 -25 14.5 -42.5t36.5 -17.5q21 0 36 18t15 42zM530 344q0 40 -29 40h-415q-30 0 -30 -40t30 -40h415q29 0 29 40zM345 175q0 25 -15 42.5t-36 17.5t-36 -17t-15 -43q0 -25 14.5 -42.5t36.5 -17.5t36.5 18
t14.5 42z" />
    <glyph glyph-name="oslash" unicode="&#xf8;" 
d="M531 587l-39 39l-52 -72q-26 35 -61.5 51t-83.5 16q-104 0 -162.5 -82.5t-58.5 -234.5q0 -124 41 -200l-60 -85l37 -43l58 81q30 -37 64.5 -52.5t80.5 -15.5q104 0 162.5 81.5t58.5 233.5q0 137 -42 203zM389 483l-217 -299q-13 55 -13 121q0 114 35.5 172t100.5 58
q28 0 53.5 -13.5t40.5 -38.5zM431 320q0 -246 -136 -246q-32 0 -55.5 14t-38.5 40l213 296q11 -24 14 -49.5t3 -54.5z" />
    <glyph glyph-name="ugrave" unicode="&#xf9;" 
d="M381 637l-95 188h-93l132 -188h56zM485 10v591h-83v-341q0 -89 -36 -136t-100 -47q-52 0 -72.5 36t-20.5 108v11v369h-84v-359v-30q0 -43 3 -78t18 -65q20 -38 55.5 -59t88.5 -21q100 0 152 111v-90h79z" />
    <glyph glyph-name="uacute" unicode="&#xfa;" 
d="M382 825h-93l-95 -188h56zM485 10v591h-83v-341q0 -89 -36 -136t-100 -47q-52 0 -72.5 36t-20.5 108v11v369h-84v-359v-30q0 -43 3 -78t18 -65q20 -38 55.5 -59t88.5 -21q100 0 152 111v-90h79z" />
    <glyph glyph-name="ucircumflex" unicode="&#xfb;" 
d="M424 637l-91 188h-91l-91 -188h56l81 123l80 -123h56zM485 10v591h-83v-341q0 -89 -36 -136t-100 -47q-52 0 -72.5 36t-20.5 108v11v369h-84v-359v-30q0 -43 3 -78t18 -65q20 -38 55.5 -59t88.5 -21q100 0 152 111v-90h79z" />
    <glyph glyph-name="udieresis" unicode="&#xfc;" 
d="M406 669v113h-84v-113h84zM253 669v113h-84v-113h84zM485 10v591h-83v-341q0 -89 -36 -136t-100 -47q-52 0 -72.5 36t-20.5 108v11v369h-84v-359v-30q0 -43 3 -78t18 -65q20 -38 55.5 -59t88.5 -21q100 0 152 111v-90h79z" />
    <glyph glyph-name="yacute" unicode="&#xfd;" 
d="M380 825h-93l-95 -188h56zM521 610h-90l-146 -486l-143 486h-92l194 -623l-17 -55q-8 -27 -25.5 -38.5t-45.5 -11.5q-33 0 -77 11v-93q20 -6 40 -7.5t41 -1.5q35 0 58.5 8.5t40.5 27.5t29.5 47.5t24.5 69.5z" />
    <glyph glyph-name="thorn" unicode="&#xfe;" 
d="M508 306q0 75 -14.5 133.5t-41 99t-63 62t-80.5 21.5q-49 0 -83 -26t-63 -86v290h-83v-1018h83v319q29 -59 63 -85t83 -26q44 0 80.5 21.5t63 62t41 99t14.5 133.5zM423 306q0 -112 -35.5 -171t-95.5 -59t-94 58.5t-34 171.5q0 114 34 171.5t97 57.5q57 0 92.5 -58.5
t35.5 -170.5z" />
    <glyph glyph-name="ydieresis" unicode="&#xff;" 
d="M404 669v113h-84v-113h84zM251 669v113h-84v-113h84zM521 610h-90l-146 -486l-143 486h-92l194 -623l-17 -55q-8 -27 -25.5 -38.5t-45.5 -11.5q-33 0 -77 11v-93q20 -6 40 -7.5t41 -1.5q35 0 58.5 8.5t40.5 27.5t29.5 47.5t24.5 69.5z" />
    <glyph glyph-name="OE" unicode="&#x152;" 
d="M593 1v95h-225v256h201v92h-201v227h225v94h-294v-36q-30 59 -114 59q-88 0 -139 -101.5t-51 -296.5q0 -201 52.5 -304.5t143.5 -103.5q71 0 108 56v-37h294zM279 156q-18 -45 -36.5 -65t-48.5 -20q-110 0 -110 319q0 310 109 310q28 0 48 -20t38 -61v-463z" />
    <glyph glyph-name="oe" unicode="&#x153;" 
d="M600 320q0 146 -46 223.5t-124 77.5q-37 0 -69.5 -22t-63.5 -65q-26 44 -58 65.5t-74 21.5q-82 0 -130 -82.5t-48 -234.5t47.5 -234t130.5 -82q45 0 78 22.5t56 67.5q28 -45 59 -67.5t69 -22.5q64 0 108.5 50t56.5 141h-76q-8 -52 -30 -78.5t-51 -26.5q-42 0 -68 52
t-26 150h258q1 12 1 22v22zM519 358h-178q2 88 26.5 132.5t62.5 44.5q43 0 66 -44.5t23 -132.5zM262 305q0 -115 -26 -173t-72 -58q-45 0 -71.5 58.5t-26.5 172.5q0 115 26 172.5t72 57.5t72 -57.5t26 -172.5z" />
    <glyph glyph-name="Scaron" unicode="&#x160;" 
d="M422 997h-56l-80 -122l-80 122h-56l91 -187h91zM522 222q0 55 -14 91t-40 59t-64 38t-87 28q-43 12 -73 21.5t-49 23.5t-27.5 35t-8.5 55q0 55 33 88t90 33q60 0 95.5 -40t40.5 -117h86v2q0 118 -58.5 182t-166.5 64q-47 0 -85.5 -16.5t-66 -46.5t-43 -71.5t-15.5 -92.5
q0 -50 12.5 -82.5t36.5 -55t58 -38t77 -29.5q44 -14 78 -24.5t57 -24t35 -35t12 -58.5q0 -64 -40 -101t-103 -37q-71 0 -113.5 47.5t-42.5 132.5h-87q5 -132 67 -202.5t172 -70.5q54 0 97.5 17.5t74 49t46.5 76t16 99.5z" />
    <glyph glyph-name="scaron" unicode="&#x161;" 
d="M420 825h-56l-80 -123l-80 123h-56l91 -188h91zM488 183q0 41 -10 69t-29.5 47.5t-48 31.5t-65.5 22l-80 22q-40 11 -60 26.5t-20 50.5q0 42 26 64t78 22q51 0 80.5 -25t31.5 -70h82v2q0 39 -13.5 71.5t-39 56t-61 36t-80.5 12.5t-80 -13t-59 -36t-36.5 -54.5
t-12.5 -68.5q0 -38 9 -65t26.5 -46.5t44.5 -33t63 -23.5l93 -27q19 -5 33.5 -11t24.5 -15t15 -22.5t5 -33.5q0 -44 -30.5 -71t-87.5 -27q-118 0 -126 119h-81q2 -99 52.5 -152t146.5 -53q102 0 155.5 53t53.5 142z" />
    <glyph glyph-name="Ydieresis" unicode="&#x178;" 
d="M404 842v113h-84v-113h84zM251 842v113h-84v-113h84zM551 766h-99l-162 -362l-165 362h-105l226 -462v-303h88v309z" />
    <glyph glyph-name="florin" unicode="&#x192;" 
d="M542 797q-22 13 -42 18.5t-41 5.5q-39 0 -66.5 -18t-47.5 -55t-34.5 -94t-26.5 -135h-112v-79h98l-64 -400q-7 -44 -13.5 -75.5t-15.5 -51.5t-22.5 -30t-32.5 -10q-28 0 -56 20l-22 -86q20 -12 40 -18.5t43 -6.5q42 0 70 19.5t48 57.5t33.5 94.5t25.5 131.5l57 355h119
v79h-106q7 55 14.5 95t17.5 66.5t24.5 39.5t36.5 13t53 -17z" />
    <glyph glyph-name="circumflex" unicode="&#x2c6;" 
d="M430 637l-90 188h-92l-91 -188h56l81 123l80 -123h56z" />
    <glyph glyph-name="tilde" unicode="&#x2dc;" 
d="M429 786h-41q-13 -38 -43 -38q-4 0 -10.5 1t-14.5 4l-45 15q-12 4 -28 4q-34 0 -57 -28t-32 -82h41q14 38 42 38q6 0 23 -5l44 -14q18 -5 31 -5q35 0 58 27.5t32 82.5z" />
    <glyph glyph-name="uni0394" unicode="&#x394;" horiz-adv-x="643" 
d="M24 0l297 677h17l280 -677h-594zM501 42l-197 486l-214 -486h411z" />
    <glyph glyph-name="Xi" unicode="&#x39e;" horiz-adv-x="643" 
d="M59 662h525v-162h-19q-3 40 -26 58.5t-74 18.5h-290q-93 0 -97 -77h-19v162zM149 439h18q0 -45 21.5 -58t69.5 -13h127q48 0 69.5 13t21.5 58h18v-219h-18q0 39 -18 55.5t-73 16.5h-127q-57 0 -74 -17.5t-17 -54.5h-18v219zM39 186h18v-12q0 -37 12.5 -56t32 -25t62.5 -6
h321q53 0 77 18t24 69v12h18v-186h-565v186z" />
    <glyph glyph-name="Psi" unicode="&#x3a8;" horiz-adv-x="737" 
d="M416 320q66 0 100.5 22.5t46 55t15.5 107.5q3 83 37 124t112 41v-19q-28 -2 -38 -21.5t-10 -83.5q0 -94 -20 -145t-79.5 -82.5t-163.5 -34.5v-155q0 -57 6.5 -73.5t28 -27t65.5 -10.5v-18h-294v18q43 0 64.5 9.5t28.5 26.5t7 75v155q-105 2 -163 33.5t-78.5 82
t-20.5 146.5q0 62 -9.5 82t-38.5 23v19q49 -1 79.5 -15.5t48.5 -52t21 -97.5q3 -75 14 -107t46 -55t101 -23v213q0 57 -6.5 74t-27.5 27t-66 10v18h294v-18q-45 0 -66 -9.5t-27.5 -27t-6.5 -74.5v-213z" />
    <glyph glyph-name="uni03A9" unicode="&#x3a9;" horiz-adv-x="743" 
d="M29 153h18q2 -35 20.5 -48.5t59.5 -13.5h133l-1 33q-78 16 -141.5 86.5t-63.5 178.5q0 120 89 204t232 84q139 0 227.5 -79.5t88.5 -204.5q0 -101 -54.5 -171.5t-148.5 -97.5l-5 -33h136q46 0 61 17.5t16 44.5h18v-153h-274l13 147q126 40 126 233q0 126 -61.5 194
t-144.5 68q-88 0 -146.5 -71.5t-58.5 -183.5q0 -81 26 -147t99 -93l10 -147h-274v153z" />
    <glyph glyph-name="uni03D8" unicode="&#x3d8;" horiz-adv-x="722" 
d="M684 335q0 -151 -96 -251q-79 -83 -184 -96v-76q0 -50 6 -66q13 -33 65 -33h24v-18h-284v18h24q41 0 59 24q12 15 12 75v76q-105 14 -182 94q-93 98 -93 251q0 158 108 258q93 86 223 86q138 0 229 -103q89 -99 89 -239zM572 322q0 133 -42 214q-54 106 -174 106
q-89 0 -142 -66q-67 -82 -67 -241q0 -163 69 -249q53 -66 141 -66q116 0 171 98q44 78 44 204z" />
    <glyph glyph-name="uni03DE" unicode="&#x3de;" horiz-adv-x="575" 
d="M566 37l-6 -48q-22 -3 -50 -3q-114 0 -114 113q0 21 4 46l31 215l-337 -215l-12 1l50 379q2 20 2 35q0 74 -71 75q-26 0 -48 -9l-5 1l6 47q22 3 49 3q114 0 114 -113q0 -21 -3 -45l-31 -216l337 214l12 -1l-50 -378q-2 -20 -3 -34q0 -74 72 -76q26 0 48 9h5z" />
    <glyph glyph-name="endash" unicode="&#x2013;" 
d="M579 267v75h-571v-75h571z" />
    <glyph glyph-name="emdash" unicode="&#x2014;" 
d="M579 267v75h-571v-75h571z" />
    <glyph glyph-name="quoteleft" unicode="&#x2018;" 
d="M357 702v62q-62 -5 -94.5 -49t-32.5 -126v-147h109v138h-53v16q0 52 16 76t55 30z" />
    <glyph glyph-name="quoteright" unicode="&#x2019;" horiz-adv-x="586" 
d="M357 598v147h-109v-137h53v-17q0 -52 -16 -75.5t-55 -29.5v-62q62 5 94.5 48.5t32.5 125.5z" />
    <glyph glyph-name="quotesinglbase" unicode="&#x201a;" 
d="M357 28v147h-109v-137h53v-17q0 -52 -16 -75.5t-55 -29.5v-63q62 5 94.5 49t32.5 126z" />
    <glyph glyph-name="quotedblleft" unicode="&#x201c;" 
d="M455 702v62q-62 -5 -94.5 -49t-32.5 -126v-147h109v138h-53v16q0 52 16 76t55 30zM259 702v62q-62 -5 -94.5 -49t-32.5 -126v-147h108v138h-53v16q0 52 16.5 76t55.5 30z" />
    <glyph glyph-name="quotedblright" unicode="&#x201d;" 
d="M455 598v147h-109v-137h53v-17q0 -52 -16 -75.5t-55 -29.5v-62q127 9 127 174zM259 598v147h-109v-137h53v-17q0 -52 -16 -75.5t-55 -29.5v-62q62 5 94.5 48.5t32.5 125.5z" />
    <glyph glyph-name="quotedblbase" unicode="&#x201e;" 
d="M455 28v147h-109v-137h53v-17q0 -52 -16 -75.5t-55 -29.5v-63q127 9 127 175zM259 28v147h-109v-137h54v-17q0 -52 -16.5 -75.5t-56.5 -29.5v-63q63 5 95.5 49t32.5 126z" />
    <glyph glyph-name="dagger" unicode="&#x2020;" 
d="M503 471v84h-170v216h-79v-216h-170v-84h170v-607h79v607h170z" />
    <glyph glyph-name="daggerdbl" unicode="&#x2021;" 
d="M503 82v82h-170v307h170v84h-170v216h-79v-216h-170v-84h170v-307h-170v-82h170v-218h79v218h170z" />
    <glyph glyph-name="bullet" unicode="&#x2022;" 
d="M368 370q0 18 -6 33.5t-16 27.5t-24 19t-29 7q-30 0 -52 -25.5t-22 -61.5t22 -61t52 -25q15 0 29 7t24 18.5t16 27t6 33.5z" />
    <glyph glyph-name="ellipsis" unicode="&#x2026;" 
d="M549 86q0 31 -19 53t-46 22t-46 -22t-19 -53q0 -33 19.5 -54.5t45.5 -21.5q28 0 46.5 22t18.5 54zM359 86q0 31 -19.5 53t-46.5 22t-46 -22t-19 -53q0 -33 19.5 -54.5t45.5 -21.5q28 0 47 22t19 54zM168 86q0 31 -19.5 53t-46.5 22t-46 -22t-19 -53q0 -33 19.5 -54.5
t45.5 -21.5q28 0 47 22t19 54z" />
    <glyph glyph-name="perthousand" unicode="&#x2030;" 
d="M274 616q0 32 -10.5 60t-29 49t-42.5 33t-51 12t-51.5 -12t-42.5 -32.5t-28.5 -48.5t-10.5 -61t10.5 -61.5t29 -49.5t42.5 -32.5t51 -11.5t51.5 12.5t42.5 33.5t28.5 49t10.5 60zM526 529l-18 52l-484 -224l17 -51zM579 156q0 32 -10.5 60t-28.5 49t-42.5 33t-51.5 12
t-51 -12t-42.5 -32.5t-29 -48.5t-10.5 -61t11 -61.5t29 -49.5t42 -32.5t51 -11.5q28 0 52 12.5t42 33.5t28.5 49t10.5 60zM293 156q0 32 -10.5 60t-28.5 49t-42.5 33t-51.5 12t-51 -12t-42 -32.5t-28.5 -48.5t-10.5 -61t10.5 -61.5t28.5 -49.5t42 -32.5t51 -11.5
q28 0 52 12.5t42 33.5t28.5 49t10.5 60zM217 616q0 -38 -22.5 -63.5t-53.5 -25.5q-32 0 -54.5 25.5t-22.5 63.5q0 19 6.5 35.5t17 28.5t24.5 18.5t29 6.5t29 -7t24.5 -19.5t16.5 -28.5t6 -34zM523 156q0 -37 -22.5 -63.5t-54.5 -26.5q-31 0 -54 26.5t-23 63.5q0 19 6.5 35.5
t17 28.5t24.5 18.5t29 6.5q32 0 54.5 -26t22.5 -63zM237 156q0 -37 -22.5 -63.5t-54.5 -26.5q-31 0 -53.5 26.5t-22.5 63.5q0 38 23 63.5t53 25.5q32 0 54.5 -26t22.5 -63z" />
    <glyph glyph-name="guilsinglleft" unicode="&#x2039;" 
d="M369 103v103l-99 99l99 98v103l-151 -143v-117z" />
    <glyph glyph-name="guilsinglright" unicode="&#x203a;" 
d="M369 246v117l-151 143v-103l99 -98l-99 -99v-103z" />
    <glyph glyph-name="trademark" unicode="&#x2122;" 
d="M526 389q0 26 -24 29l-5 190q21 5 21 28q0 14 -6.5 21.5t-16.5 7.5h-31q-24 0 -30 -25l-28 -118l-28 118q-6 25 -31 25h-30q-10 0 -16.5 -7.5t-6.5 -21.5q0 -24 20 -28l-4 -190q-24 -3 -24 -29q0 -30 24 -30h50q29 0 29 30q0 29 -31 29h-4v152l24 -101q5 -26 28 -26
q21 0 26 26l24 101v-152h-4q-30 0 -30 -29q0 -30 30 -30h50q11 0 17.5 8t6.5 22zM272 545v14l-3 78q-2 29 -25 29h-157q-24 0 -24 -29l-2 -78v-5q0 -20 4.5 -28.5t18.5 -8.5t19.5 9t5.5 31l1 50h31v-189h-17q-17 0 -25 -6t-8 -23q0 -14 6.5 -22t17.5 -8h102q11 0 17 8.5
t6 21.5q0 17 -7.5 23t-24.5 6h-17v189h30l2 -50q1 -22 6 -31t19 -9q10 0 17 7.5t7 20.5z" />
    <glyph glyph-name="proportional" unicode="&#x221d;" horiz-adv-x="1024" 
d="M628 288q56 -56 120 -56q52 0 92 32l56 -56q-56 -60 -144 -60q-104 0 -164 60q-40 40 -60 72q-28 -40 -64 -76q-60 -60 -156 -60q-92 0 -144 52q-60 60 -60 152q0 88 56 144q60 60 144 60q92 0 152 -60q44 -44 68 -76q24 36 60 72q64 64 160 64q92 0 152 -64l-56 -56
q-44 36 -96 36q-64 0 -116 -52q-28 -28 -52 -64q16 -28 52 -64zM416 416q-52 52 -112 52q-48 0 -84 -36q-32 -32 -32 -84t40 -92q28 -28 76 -28q64 0 120 56q28 28 48 64q-28 40 -56 68z" />
    <glyph glyph-name="infinity" unicode="&#x221e;" horiz-adv-x="712" 
d="M319 326q33 76 72.5 105.5t108.5 29.5q79 0 133 -56.5t54 -147.5q0 -89 -53 -147t-118 -58q-48 0 -90 36q-27 23 -74 104q-31 -61 -68.5 -87.5t-90.5 -26.5q-70 0 -118.5 50.5t-48.5 129.5q0 81 45 130.5t105 49.5q42 0 74 -22t69 -90zM366 227q37 -76 72.5 -102.5
t79.5 -26.5q60 0 100.5 43.5t40.5 115.5t-42.5 119t-95.5 47q-34 0 -59 -17t-45 -55q-12 -21 -51 -124zM305 288q-24 54 -55 79.5t-76 25.5q-52 0 -86.5 -36.5t-34.5 -97.5q0 -65 34.5 -104t77.5 -39q46 0 82 42q23 27 58 130z" />
    <glyph glyph-name="uni22EF" unicode="&#x22ef;" horiz-adv-x="880" 
d="M800 318v164h-132v-164h132zM506 318v164h-132v-164h132zM212 318v164h-132v-164h132z" />
    <glyph glyph-name="uni232C" unicode="&#x232c;" horiz-adv-x="624" 
d="M299 207l31 -54l200 115l-31 54zM187 497h-62v-229h62v229zM499 443l31 54l-200 115l-31 -54zM62 536l268 152l268 -152v-307l-268 -153l-268 153v307zM0 574v-383l330 -191l330 191v383l-330 191z" />
    <glyph glyph-name="heart" unicode="&#x2665;" horiz-adv-x="593" 
d="M298 -12q-15 58 -43 108.5t-109 156.5q-59 78 -73 100q-22 34 -32 62.5t-10 57.5q0 54 36 91t90 37q53 -1 93 -39q30 -28 48 -84q16 55 45 84q41 40 93 39q53 0 90 -36t37 -86q0 -44 -21 -91.5t-84 -125.5q-80 -101 -116 -166q-29 -52 -44 -108z" />
    <glyph glyph-name="musicalnotedbl" unicode="&#x266b;" horiz-adv-x="750" 
d="M261 621l388 121v-541q0 -61 -15 -91.5t-52 -50.5t-83 -20q-53 0 -85 30.5t-32 78.5q0 49 37.5 84.5t97.5 35.5q20 0 34.5 -3.5t48.5 -17.5v353l-291 -90v-408q0 -59 -15.5 -92t-53.5 -52.5t-83 -19.5q-53 0 -84 30t-31 78q0 51 37 86t97 35q38 0 85 -22v476z" />
    <glyph glyph-name="uni2BC5" unicode="&#x2bc5;" 
d="M293 765l244 -764h-487z" />
    <glyph glyph-name="uni2BC6" unicode="&#x2bc6;" 
d="M293 1l244 764h-487z" />
    <glyph glyph-name="uni2E38" unicode="&#x2e38;" horiz-adv-x="500" 
d="M256 685q7 -262 16 -350t33 -177q-24 -20 -35.5 -45t-13.5 -71q20 1 30 3.5t34 12.5q54 23 80 23q21 0 36 -13.5t15 -33.5q0 -21 -14.5 -34.5t-38.5 -13.5q-11 0 -22 3q-8 2 -56 21q-30 12 -64 15q2 -34 19 -76.5t22 -61.5q4 -15 4 -29q0 -27 -16 -45.5t-37 -18.5
q-22 0 -38.5 18t-16.5 46q0 32 27 95q11 27 14 42q3 10 4 30q-35 -2 -65 -15q-46 -20 -51 -21q-10 -3 -22 -3q-21 0 -36 14t-15 34t14 33.5t36 13.5q23 0 74 -22q33 -14 65 -17q-3 46 -14 70t-36 46q23 87 34 184q14 130 16 343h18z" />
    <glyph glyph-name="minus" unicode="&#xe000;" 
d="M514 355v75h-441v-75h441z" />
    <glyph glyph-name="apple" unicode="&#xe001;" horiz-adv-x="589" 
d="M621 451l-269 1l251 313h-115l-283 -353v353h-87v-404h-155v-2h155v-358h87v272l78 97l222 -369h106l-266 443l5 6l271 -1v2z" />
    <glyph glyph-name="uniF0C1" unicode="&#xf0c1;" horiz-adv-x="1000" 
d="M641 535q87 -88 87 -210.5t-86 -208.5q-1 0 -1 -1l-131 -131q-87 -87 -210 -87t-210 87t-87 210t87 210l72 72q15 15 34 7.5t20 -28.5q2 -53 19 -103q6 -18 -8 -32l-25 -26q-42 -41 -42.5 -99t39.5 -100q41 -42 100 -42t100 41l131 132q42 41 42 99t-42 99q-9 10 -20 17
q-13 9 -13 25q-2 34 23 58l41 41q8 8 19 9t21 -6q21 -15 40 -33zM916 810q87 -87 87 -210t-87 -210l-72 -72q-15 -15 -34 -7.5t-20 28.5q-2 53 -19 103q-6 18 8 32l25 26q42 41 42.5 99t-39.5 100q-41 42 -100 42t-100 -41l-131 -132q-42 -41 -42 -99t42 -99q9 -10 20 -17
q13 -9 13 -25q2 -34 -23 -58l-41 -41q-8 -8 -19 -9t-21 6q-21 15 -40 33q-87 88 -87 210.5t86 208.5q1 0 1 1l131 131q87 87 210 87t210 -87z" />
    <glyph glyph-name="uniF400" unicode="&#xf400;" 
 />
    <glyph glyph-name="uniF401" unicode="&#xf401;" 
d="M317 76h246v-176h-246v176z" />
    <glyph glyph-name="uniF402" unicode="&#xf402;" 
d="M317 276h246v-176h-246v176zM317 76h246v-176h-246v176z" />
    <glyph glyph-name="uniF403" unicode="&#xf403;" 
d="M317 300h246v176h-246v-176zM317 276h246v-176h-246v176zM317 76h246v-176h-246v176z" />
    <glyph glyph-name="uniF404" unicode="&#xf404;" 
d="M317 677h246v-177h-246v177zM317 300h246v176h-246v-176zM317 276h246v-176h-246v176zM317 76h246v-176h-246v176z" />
    <glyph glyph-name="uniF405" unicode="&#xf405;" 
d="M24 76h246v-176h-246v176z" />
    <glyph glyph-name="uniF406" unicode="&#xf406;" 
d="M317 76h246v-176h-246v176zM24 76h246v-176h-246v176z" />
    <glyph glyph-name="uniF407" unicode="&#xf407;" 
d="M317 276h246v-176h-246v176zM317 76h246v-176h-246v176zM24 76h246v-176h-246v176z" />
    <glyph glyph-name="uniF408" unicode="&#xf408;" 
d="M317 300h246v176h-246v-176zM317 276h246v-176h-246v176zM317 76h246v-176h-246v176zM24 76h246v-176h-246v176z" />
    <glyph glyph-name="uniF409" unicode="&#xf409;" 
d="M317 677h246v-177h-246v177zM317 300h246v176h-246v-176zM317 276h246v-176h-246v176zM317 76h246v-176h-246v176zM24 76h246v-176h-246v176z" />
    <glyph glyph-name="uniF40A" unicode="&#xf40a;" 
d="M24 276h246v-176h-246v176zM24 76h246v-176h-246v176z" />
    <glyph glyph-name="uniF40B" unicode="&#xf40b;" 
d="M317 76h246v-176h-246v176zM24 276h246v-176h-246v176zM24 76h246v-176h-246v176z" />
    <glyph glyph-name="uniF40C" unicode="&#xf40c;" 
d="M317 276h246v-176h-246v176zM317 76h246v-176h-246v176zM24 276h246v-176h-246v176zM24 76h246v-176h-246v176z" />
    <glyph glyph-name="uniF40D" unicode="&#xf40d;" 
d="M317 300h246v176h-246v-176zM317 276h246v-176h-246v176zM317 76h246v-176h-246v176zM24 276h246v-176h-246v176zM24 76h246v-176h-246v176z" />
    <glyph glyph-name="uniF40E" unicode="&#xf40e;" 
d="M317 677h246v-177h-246v177zM317 300h246v176h-246v-176zM317 276h246v-176h-246v176zM317 76h246v-176h-246v176zM24 276h246v-176h-246v176zM24 76h246v-176h-246v176z" />
    <glyph glyph-name="uniF40F" unicode="&#xf40f;" 
d="M24 300h246v176h-246v-176zM24 276h246v-176h-246v176zM24 76h246v-176h-246v176z" />
    <glyph glyph-name="uniF410" unicode="&#xf410;" 
d="M317 76h246v-176h-246v176zM24 300h246v176h-246v-176zM24 276h246v-176h-246v176zM24 76h246v-176h-246v176z" />
    <glyph glyph-name="uniF411" unicode="&#xf411;" 
d="M317 276h246v-176h-246v176zM317 76h246v-176h-246v176zM24 300h246v176h-246v-176zM24 276h246v-176h-246v176zM24 76h246v-176h-246v176z" />
    <glyph glyph-name="uniF412" unicode="&#xf412;" 
d="M317 300h246v176h-246v-176zM317 276h246v-176h-246v176zM317 76h246v-176h-246v176zM24 300h246v176h-246v-176zM24 276h246v-176h-246v176zM24 76h246v-176h-246v176z" />
    <glyph glyph-name="uniF413" unicode="&#xf413;" 
d="M317 677h246v-177h-246v177zM317 300h246v176h-246v-176zM317 276h246v-176h-246v176zM317 76h246v-176h-246v176zM24 300h246v176h-246v-176zM24 276h246v-176h-246v176zM24 76h246v-176h-246v176z" />
    <glyph glyph-name="uniF414" unicode="&#xf414;" 
d="M24 677h246v-177h-246v177zM24 300h246v176h-246v-176zM24 276h246v-176h-246v176zM24 76h246v-176h-246v176z" />
    <glyph glyph-name="uniF415" unicode="&#xf415;" 
d="M317 76h246v-176h-246v176zM24 677h246v-177h-246v177zM24 300h246v176h-246v-176zM24 276h246v-176h-246v176zM24 76h246v-176h-246v176z" />
    <glyph glyph-name="uniF416" unicode="&#xf416;" 
d="M317 276h246v-176h-246v176zM317 76h246v-176h-246v176zM24 677h246v-177h-246v177zM24 300h246v176h-246v-176zM24 276h246v-176h-246v176zM24 76h246v-176h-246v176z" />
    <glyph glyph-name="uniF417" unicode="&#xf417;" 
d="M317 300h246v176h-246v-176zM317 276h246v-176h-246v176zM317 76h246v-176h-246v176zM24 677h246v-177h-246v177zM24 300h246v176h-246v-176zM24 276h246v-176h-246v176zM24 76h246v-176h-246v176z" />
    <glyph glyph-name="uniF418" unicode="&#xf418;" 
d="M317 677h246v-177h-246v177zM317 300h246v176h-246v-176zM317 276h246v-176h-246v176zM317 76h246v-176h-246v176zM24 677h246v-177h-246v177zM24 300h246v176h-246v-176zM24 276h246v-176h-246v176zM24 76h246v-176h-246v176z" />
    <glyph glyph-name="uniF420" unicode="&#xf420;" 
 />
    <glyph glyph-name="uniF421" unicode="&#xf421;" 
d="M0 0v100h587v-100h-587z" />
    <glyph glyph-name="uniF422" unicode="&#xf422;" 
d="M0 0v200h587v-200h-587z" />
    <glyph glyph-name="uniF423" unicode="&#xf423;" 
d="M0 0v301h587v-301h-587z" />
    <glyph glyph-name="uniF424" unicode="&#xf424;" 
d="M0 0v403h587v-403h-587z" />
    <glyph glyph-name="uniF425" unicode="&#xf425;" 
d="M0 0v499h587v-499h-587z" />
    <glyph glyph-name="uniF426" unicode="&#xf426;" 
d="M0 0v600h587v-600h-587z" />
    <glyph glyph-name="uniF427" unicode="&#xf427;" 
d="M0 0v700h587v-700h-587z" />
    <glyph glyph-name="uniF428" unicode="&#xf428;" 
d="M0 0v800h587v-800h-587z" />
    <glyph glyph-name="uniF429" unicode="&#xf429;" 
d="M0 0v80h587v-80h-587z" />
    <glyph glyph-name="uniF42A" unicode="&#xf42a;" 
d="M0 0v160h587v-160h-587z" />
    <glyph glyph-name="uniF42B" unicode="&#xf42b;" 
d="M0 0v240h587v-240h-587z" />
    <glyph glyph-name="uniF42C" unicode="&#xf42c;" 
d="M0 0v320h587v-320h-587z" />
    <glyph glyph-name="uniF42D" unicode="&#xf42d;" 
d="M0 0v480h587v-480h-587z" />
    <glyph glyph-name="uniF42E" unicode="&#xf42e;" 
d="M0 0v560h587v-560h-587z" />
    <glyph glyph-name="uniF42F" unicode="&#xf42f;" 
d="M0 0v639h587v-639h-587z" />
    <glyph glyph-name="uniF430" unicode="&#xf430;" 
d="M0 0v721h587v-721h-587z" />
  </font>
</defs>
</svg>
